<svg width="20" height="20" viewBox="0 0 20 20" fill="none" xmlns="http://www.w3.org/2000/svg">
<g clip-path="url(#clip0_1415_17191)">
<path d="M0 18.7831V17.3959C0.381807 17.2126 0.796172 17.1827 1.19278 17.0971C3.98185 16.4896 6.77585 15.902 9.5659 15.2945C9.86957 15.2293 10.1836 15.2313 10.4864 15.3005C13.5007 15.9591 16.5154 16.6138 19.5304 17.2644C19.6892 17.2983 19.854 17.3122 20 17.4287V18.7841L0 18.7831Z" fill="#175041"/>
<path d="M10.232 1.1416L13.3111 1.70527V15.1317L10.2527 14.4754C10.1531 14.0771 10.1363 1.72917 10.232 1.1416Z" fill="#175041"/>
<path d="M6.77873 1.69332L9.79964 1.1416C9.89831 1.5041 9.93777 13.5662 9.83812 14.4565L6.79155 15.1148C6.69487 14.7264 6.68105 2.22811 6.77873 1.69332Z" fill="#175041"/>
<path d="M0.858156 3.77302L4.07836 3.29102C4.19182 3.67244 4.22734 14.9308 4.12276 15.6837L0.887754 16.3789C0.789096 15.9805 0.765418 4.43827 0.858156 3.77302Z" fill="#175041"/>
<path d="M19.1247 16.3882L15.9874 15.717C15.8788 15.3187 15.8601 4.51039 15.9657 3.32031C17.0331 3.4199 18.0829 3.61908 19.1227 3.78439C19.2026 4.22955 19.2076 15.8295 19.1247 16.3882Z" fill="#175041"/>
<path d="M14.1562 3.56065L15.6026 3.30371V15.6058C15.1145 15.538 14.6315 15.4381 14.1562 15.307V3.56065Z" fill="#175041"/>
<path d="M5.90786 15.2995C5.41457 15.3902 4.98837 15.5535 4.49902 15.5525V3.33304C4.99231 3.3191 5.44022 3.45255 5.90786 3.55213V15.2995Z" fill="#175041"/>
</g>
<defs>
<clipPath id="clip0_1415_17191">
<rect width="20" height="20" fill="white" transform="translate(0 -0.000976562)"/>
</clipPath>
</defs>
</svg>
