<svg width="30" height="30" viewBox="0 0 30 30" fill="none" xmlns="http://www.w3.org/2000/svg">
<g clip-path="url(#clip0_1415_17165)">
<path d="M0 28.1761V26.0952C0.572711 25.8204 1.19426 25.7756 1.78917 25.6471C5.97277 24.7359 10.1638 23.8545 14.3489 22.9433C14.8044 22.8454 15.2754 22.8484 15.7296 22.9522C20.251 23.9401 24.7731 24.9221 29.2956 25.8981C29.5338 25.9488 29.781 25.9698 30 26.1445V28.1776L0 28.1761Z" fill="#878786"/>
<path d="M15.3478 1.71387L19.9665 2.55937V22.699L15.3789 21.7146C15.2294 21.1171 15.2042 2.59522 15.3478 1.71387Z" fill="#878786"/>
<path d="M10.1681 2.54144L14.6995 1.71387C14.8475 2.25762 14.9067 20.3508 14.7572 21.6862L10.1873 22.6736C10.0423 22.0911 10.0216 3.34362 10.1681 2.54144Z" fill="#878786"/>
<path d="M1.28772 5.66051L6.11803 4.9375C6.28822 5.50963 6.34149 22.3972 6.18462 23.5266L1.33212 24.5693C1.18413 23.9717 1.14861 6.65838 1.28772 5.66051Z" fill="#878786"/>
<path d="M28.6875 24.5833L23.9815 23.5765C23.8187 22.979 23.7906 6.76656 23.949 4.98145C25.5502 5.13083 27.1248 5.42959 28.6846 5.67757C28.8044 6.3453 28.8118 23.7453 28.6875 24.5833Z" fill="#878786"/>
<path d="M21.2349 5.34244L23.4044 4.95703V23.4102C22.6723 23.3085 21.9477 23.1586 21.2349 22.962V5.34244Z" fill="#878786"/>
<path d="M8.86131 22.9503C8.12137 23.0862 7.48206 23.3312 6.74805 23.3297V5.00054C7.48798 4.97962 8.15985 5.1798 8.86131 5.32918V22.9503Z" fill="#878786"/>
</g>
<defs>
<clipPath id="clip0_1415_17165">
<rect width="30" height="30" fill="white"/>
</clipPath>
</defs>
</svg>
