<svg width="18" height="18" viewBox="0 0 18 18" fill="none" xmlns="http://www.w3.org/2000/svg">
<path d="M8.99997 11.25C10.2426 11.25 11.25 10.2426 11.25 9C11.25 7.75736 10.2426 6.75 8.99997 6.75C7.75733 6.75 6.74997 7.75736 6.74997 9C6.74997 10.2426 7.75733 11.25 8.99997 11.25Z" fill="#717170"/>
<path fill-rule="evenodd" clip-rule="evenodd" d="M8.99994 3.9375C4.40101 3.9375 2.39384 6.88954 1.78919 8.59984C1.69738 8.85953 1.69738 9.14047 1.78919 9.40016C2.39384 11.1105 4.40101 14.0625 8.99994 14.0625C13.5989 14.0625 15.606 11.1105 16.2107 9.40016C16.3025 9.14047 16.3025 8.85953 16.2107 8.59984C15.606 6.88954 13.5989 3.9375 8.99994 3.9375ZM2.84986 8.97482C3.34327 7.57917 5.00657 5.0625 8.99994 5.0625C12.9933 5.0625 14.6566 7.57917 15.15 8.97482C15.156 8.99188 15.156 9.00812 15.15 9.02518C14.6566 10.4208 12.9933 12.9375 8.99994 12.9375C5.00657 12.9375 3.34327 10.4208 2.84986 9.02518C2.84383 9.00812 2.84383 8.99188 2.84986 8.97482Z" fill="#717170"/>
</svg>
