<svg width="530" height="305" viewBox="0 0 530 305" fill="none" xmlns="http://www.w3.org/2000/svg">
<path d="M254.302 190.119C254.351 190.434 254.401 190.749 254.45 191.063C255.221 191.016 255.992 190.969 256.763 190.922C256.72 190.43 256.677 189.939 256.634 189.448C255.857 189.672 255.079 189.896 254.302 190.119ZM165.582 167.828C165.241 168 164.9 168.173 164.559 168.345C165.291 169.674 166.024 171.004 166.756 172.333C167.023 172.192 167.289 172.052 167.556 171.912C166.898 170.55 166.24 169.189 165.582 167.828ZM447.359 219.143V219.604H455.491V219.143H447.359ZM95.7358 297.973C97.3379 299.533 100.692 299.241 101.98 297.973H95.7358ZM458.163 235.919C457.863 235.894 457.558 235.868 457.257 235.843C457.068 238.589 456.879 241.335 456.689 244.081C456.961 244.1 457.229 244.119 457.5 244.138C457.723 241.398 457.941 238.659 458.163 235.919ZM506.321 142.129C506.325 142.248 506.329 142.368 506.329 142.488H514.865C514.861 142.215 514.853 141.941 514.849 141.667C512.007 141.821 509.162 141.975 506.321 142.129ZM113.256 198.812C113.27 199.026 113.284 199.24 113.298 199.454C116.541 199.871 122.916 199.253 124.084 198.129C120.246 198.371 116.751 198.592 113.256 198.812ZM691.27 299.817C695.375 301.37 698.615 301.259 699.863 299.817H691.27ZM645.088 298.409C645.101 298.558 645.117 298.706 645.129 298.858H656.378C656.374 298.706 656.37 298.558 656.366 298.409H645.088ZM500.721 254.492C503.698 255.45 506.161 256.217 509.088 255.418C507.285 253.88 502.961 253.33 500.721 254.492ZM75.0809 252.161C75.6261 252.116 76.284 252.247 76.6908 251.987C77.3443 251.567 77.8322 250.89 78.3901 250.321C77.7824 249.941 77.2121 249.462 76.5545 249.214C76.0711 249.033 75.4688 249.196 74.9273 249.137C73.7069 249.002 72.9443 249.278 72.9839 250.744C73.0259 252.296 73.9601 252.318 75.0809 252.161ZM777.14 299.546C777.152 299.332 777.16 299.122 777.169 298.912C776.497 298.805 775.826 298.603 775.159 298.607C769.893 298.644 764.623 298.681 759.361 298.829C758.418 298.854 757.487 299.381 756.557 299.677C757.458 299.982 758.372 300.571 759.27 300.554C764.944 300.435 770.614 300.184 776.283 299.953C776.576 299.941 776.856 299.686 777.14 299.546ZM596.762 124.606C598.075 121.309 598.754 102.813 597.75 100.765C596.103 103.1 595.378 119.151 596.762 124.606ZM47.8809 193.405C47.6416 193.831 47.4959 193.998 47.4489 194.188C46.6691 197.38 45.7789 200.468 43.4484 203.024C42.8501 203.679 42.7093 205.769 43.2355 206.259C45.599 208.462 48.6776 209.411 51.7476 210.409C52.2647 207.503 50.0318 197.683 47.8809 193.405ZM51.4334 273.566C54.7208 273.566 57.5129 273.582 60.3041 273.558C61.4813 273.549 61.5851 272.862 61.3528 271.878C60.3898 267.81 59.4991 263.726 58.5114 259.662C58.287 258.738 57.7817 257.884 57.4054 256.997C57.1888 257.025 56.9718 257.052 56.7553 257.08C54.06 262.013 53.3065 267.588 51.4334 273.566ZM71.3459 260.807C71.3459 258.918 71.2846 257.451 71.3632 255.991C71.4402 254.562 70.8737 254.058 69.4474 254.104C65.8965 254.219 62.3423 254.213 58.7897 254.278C58.441 254.284 58.0947 254.442 57.7122 254.538C61.6443 259.622 61.0778 266.04 63.4334 271.96C63.7933 271.124 64.0226 270.733 64.135 270.309C64.8902 267.468 65.5296 264.594 66.3807 261.786C67.5887 257.796 68.0791 257.691 71.3459 260.807ZM62.2348 296.355C66.5874 296.355 70.4751 296.392 74.3591 296.293C74.686 296.285 75.3568 295.276 75.2481 294.918C74.1858 291.46 73.1576 287.976 71.7799 284.637C70.767 282.183 69.3238 282.093 67.6439 284.131C64.7872 287.598 63.8418 291.9 62.2348 296.355ZM412.204 250.449C412.233 250.215 412.258 249.981 412.286 249.746C412.01 249.575 411.759 249.326 411.459 249.244C405.147 247.517 398.736 246.175 392.18 246.707C388.971 246.967 385.816 248.08 382.685 248.973C381.903 249.196 381.303 250.058 380.62 250.627C380.711 250.922 380.802 251.217 380.894 251.513C391.389 253.227 401.784 251.436 412.204 250.449ZM55.5645 296.499C53.1603 292.089 51.1069 288.112 48.8316 284.263C47.9109 282.706 46.6534 282.83 45.286 284.295C42.2918 287.503 41.2274 291.678 39.7608 295.639C39.6603 295.906 40.4114 296.878 40.7593 296.874C45.5273 296.82 50.2941 296.651 55.5645 296.499ZM414.094 207.481C414.135 207.238 414.18 206.993 414.222 206.749C413.546 206.492 412.892 206.124 412.196 205.996C407.275 205.094 402.378 204.027 397.422 203.433C392.365 202.827 387.266 202.979 382.389 204.775C381.209 205.21 380.145 205.957 379.028 206.561C379.116 206.837 379.204 207.114 379.292 207.39C390.884 209.455 402.491 207.786 414.094 207.481ZM49.3842 273.101C48.9613 271.433 48.6294 269.996 48.23 268.58C47.4897 265.949 46.7547 263.318 45.9111 260.724C45.7303 260.168 45.0962 259.759 44.6709 259.282C44.2579 259.696 43.7066 260.039 43.4542 260.534C41.9641 263.458 40.5802 266.435 39.0736 269.346C38.7038 270.062 38.0092 270.606 37.4641 271.231C37.0741 270.573 36.5895 269.951 36.3104 269.247C34.9977 265.941 33.3865 262.824 30.7242 259.715C29.3234 262.408 27.9148 264.718 26.8883 267.188C25.5654 270.367 26.4877 271.828 29.9324 272.166C34.154 272.582 38.3913 272.85 42.6274 273.08C44.78 273.199 46.9446 273.101 49.3842 273.101ZM228.625 174.484C229.811 174.576 230.995 174.721 232.182 174.752C236.158 174.857 240.134 174.946 244.111 174.992C246.167 175.016 247.32 175.886 247.424 178.031C247.701 183.778 248.191 189.52 248.276 195.269C248.487 209.399 248.496 223.533 248.641 237.665C248.665 240.03 248.962 242.391 249.133 244.755C249.339 244.746 249.544 244.737 249.749 244.728C249.844 243.374 250.028 242.02 250.021 240.666C249.949 227.701 249.959 214.735 249.712 201.773C249.525 191.974 248.972 182.183 248.649 172.386C248.59 170.591 247.906 169.73 246.09 169.724C243.141 169.715 240.156 169.925 237.253 169.537C233.229 168.999 230.945 171.342 228.625 174.484ZM689.553 240.481C689.578 240.873 689.598 241.264 689.623 241.656C693.843 241.656 698.068 241.65 702.292 241.657C715.728 241.679 729.159 241.731 742.594 241.724C753.357 241.718 764.116 241.64 774.879 241.601C775.884 241.598 776.905 241.626 776.922 240.233C776.942 238.688 775.765 239.014 774.855 239.007C771.495 238.984 768.135 238.93 764.775 238.978C742.166 239.301 719.553 239.635 696.944 240.002C694.477 240.042 692.019 240.316 689.553 240.481ZM394.837 287.803C395.253 290.998 395.543 293.646 395.963 296.277C396.18 297.635 397.054 298.414 398.52 298.496C400.844 298.624 403.166 298.821 405.488 298.994C406.629 299.076 407.172 298.574 407.012 297.409C406.094 290.69 405.266 283.954 404.183 277.259C403.85 275.205 402.956 273.195 402.046 271.297C401.313 269.762 400.173 269.725 399.226 271.129C398.393 272.364 397.554 273.731 397.238 275.151C396.276 279.487 395.564 283.88 394.837 287.803ZM563.583 205.844C561.615 207.841 560.293 210.009 560.256 212.76C560.227 214.68 560.095 216.603 560.169 218.519C560.762 233.66 561.281 248.806 562.059 263.936C562.459 271.742 563.328 279.519 564.028 287.309C564.143 288.569 564.493 289.813 564.732 291.064C564.995 291.027 565.255 290.99 565.518 290.949C565.736 262.581 564.81 234.23 563.583 205.844ZM524.665 227.053C524.389 227.033 524.113 227.013 523.837 226.992C523.516 227.695 523.038 228.368 522.894 229.106C521.893 234.278 520.675 239.429 520.061 244.651C518.472 258.155 517.986 271.721 518.554 285.317C518.645 287.433 518.884 289.557 519.25 291.645C519.637 293.843 521.638 293.699 523.186 293.823C524.961 293.963 524.483 292.374 524.529 291.406C524.833 284.971 525.22 278.531 525.303 272.088C525.463 259.138 525.488 246.186 525.467 233.235C525.463 231.174 524.945 229.114 524.665 227.053ZM45.9831 238.356C45.9831 238.199 45.9827 238.042 45.9827 237.885C39.3326 237.885 32.6796 238.003 26.0327 237.845C21.3812 237.734 21.3857 237.564 21.3582 242.105C21.3557 242.516 21.375 242.932 21.3248 243.338C21.0922 245.227 21.8329 246.077 23.8146 246.125C29.7784 246.269 35.7384 246.581 41.7022 246.745C50.5469 246.987 59.3937 247.169 68.2405 247.357C71.0841 247.417 71.2434 247.195 71.0256 244.301C70.9387 243.141 70.886 241.969 70.9424 240.809C71.031 238.977 70.3363 238.29 68.411 238.315C60.9361 238.415 53.4592 238.356 45.9831 238.356ZM445.938 105.515C444.613 109.242 443.489 113.101 441.883 116.749C439.264 122.702 436.353 128.526 433.528 134.387C432.791 135.921 432.82 137.002 434.764 137.397C440.19 138.503 445.588 139.777 451.048 140.7C457.134 141.728 457.62 141.081 455.734 135.085C453.844 129.077 451.847 123.102 449.867 117.122C448.565 113.182 447.207 109.259 445.938 105.515ZM397.592 144.292C404.471 143.833 408.297 139.833 411.512 135.034C411.751 134.68 411.376 133.523 410.936 133.17C406.95 129.953 403.092 126.501 398.783 123.776C394.687 121.187 390.1 119.602 385.172 122.186C381.894 123.906 380.663 126.522 381.885 130.026C383.996 136.076 388.665 139.865 393.873 143.062C395.107 143.82 396.69 144.007 397.592 144.292ZM56.6453 254.607C56.1623 254.401 55.9849 254.26 55.8049 254.257C44.2888 254.04 32.7714 253.873 21.2569 253.589C19.4229 253.543 19.0013 254.344 18.9799 255.882C18.893 262.05 18.8428 268.222 18.6332 274.389C18.5768 276.045 19.1911 276.353 20.6368 276.345C33.5306 276.267 46.4249 276.176 59.3188 276.226C65.894 276.25 72.4679 276.547 79.0419 276.724C80.7247 276.769 81.479 277.535 81.3695 279.318C81.0586 284.382 80.8441 289.45 80.6366 294.514C80.6135 295.074 80.8495 296.116 81.0208 296.128C82.3688 296.219 83.7988 296.343 85.053 295.96C85.5335 295.816 85.8724 294.375 85.8481 293.535C85.7015 288.462 85.3647 283.394 85.2375 278.321C85.1918 276.489 84.6013 275.822 82.7085 275.789C70.7855 275.571 58.8618 275.316 46.9437 274.921C40.9857 274.723 35.0208 274.369 29.0924 273.764C25.0836 273.352 23.6677 270.886 25.1063 267.229C26.2308 264.368 27.69 261.638 29.0673 258.883C29.6709 257.676 30.7444 257.573 31.5847 258.505C32.9011 259.967 34.1054 261.548 35.2073 263.178C36.1296 264.545 36.8374 266.056 37.8668 267.909C38.4366 266.653 38.7619 265.842 39.1617 265.072C40.231 263.005 41.2003 260.873 42.4557 258.924C43.933 256.631 45.9564 256.763 47.1389 259.237C47.9871 261.014 48.4824 262.964 49.0683 264.858C49.5073 266.274 49.84 267.724 50.2196 269.156C50.4329 269.132 50.6458 269.111 50.859 269.086C52.464 264.195 52.9009 258.833 56.6453 254.607ZM18.7703 292.987C18.9391 292.979 19.108 292.971 19.2768 292.962C20.5161 290.615 21.6279 288.186 23.0237 285.938C25.4843 281.969 28.4344 281.858 31.0046 285.691C32.5194 287.952 33.6492 290.471 34.9294 292.888C35.5725 294.103 36.165 295.342 36.7806 296.569C36.9971 296.557 37.2141 296.54 37.4307 296.528C38.262 294.395 38.9056 292.168 39.9708 290.158C41.3662 287.532 42.8481 284.872 44.7536 282.616C46.3932 280.672 48.4618 280.936 50.0182 282.961C51.1736 284.464 51.958 286.247 52.9141 287.906C54.3828 290.451 55.7312 293.073 57.3729 295.503C58.4657 297.121 59.745 296.898 60.6261 295.124C61.2627 293.843 61.6522 292.439 62.2504 291.134C63.4161 288.598 64.3812 285.909 65.9183 283.608C68.4888 279.762 71.6535 280.158 73.6435 284.312C73.8205 284.683 73.9803 285.061 74.1046 285.452C75.0628 288.454 75.9904 291.468 76.977 294.457C77.1825 295.083 77.5946 295.634 77.9112 296.223C78.113 296.186 78.3143 296.153 78.5161 296.12C78.6631 295.433 78.892 294.749 78.9431 294.057C79.1786 290.846 79.4849 287.635 79.5438 284.415C79.6723 277.379 80.7243 278.194 73.4022 278.115C55.7909 277.93 38.176 278.066 20.5627 278.025C19.0833 278.021 18.4545 278.424 18.4858 279.993C18.5595 283.694 18.4858 287.396 18.5052 291.097C18.5085 291.727 18.6777 292.357 18.7703 292.987ZM51.1786 232.778C54.8727 232.778 61.7938 232.751 68.7145 232.799C70.1827 232.809 70.8354 232.291 70.422 230.856C69.7846 228.645 69.4136 226.254 68.2957 224.303C64.9968 218.547 59.5247 215.432 53.5354 213.122C53.0891 212.95 52.4681 213.104 51.9617 213.236C48.8559 214.038 45.8048 215.198 42.6517 215.645C34.138 216.854 28.9458 221.934 25.6778 229.458C24.7102 231.686 24.9321 231.98 27.4075 232.058C34.2545 232.273 41.1023 232.474 51.1786 232.778ZM422.168 149.346C422.123 148.448 422.189 148.198 422.09 148.057C419.521 144.269 416.951 140.479 414.337 136.721C413.534 135.57 412.962 136.248 412.282 137.02C410.615 138.917 409.009 140.922 407.082 142.529C401.968 146.792 396.483 147.078 391.011 143.339C386.139 140.011 381.881 136.056 380.123 130.13C379.008 126.371 380.258 123.19 383.55 121.069C388.116 118.128 392.714 118.967 397.279 121.02C402.599 123.411 407.094 126.979 411.241 131.021C412.71 132.453 413.188 132.309 413.867 130.383C415.465 125.842 414.872 121.468 412.904 117.206C409.808 110.497 403.887 106.599 397.252 106.853C387.694 107.219 380.065 114.407 378.579 124.263C377.491 131.481 378.029 138.615 379.237 145.747C379.757 148.817 379.741 148.983 382.811 149.034C393.092 149.201 403.376 149.256 413.657 149.342C416.441 149.365 419.224 149.346 422.168 149.346ZM398.944 34.111C398.48 34.6804 398.285 34.8179 398.241 34.9929C398.109 35.5228 398.036 36.0675 397.94 36.6061C396.553 44.4091 394.501 51.9914 390.4 58.8701C385.276 67.4624 380.1 76.0233 374.993 84.6255C373.742 86.7335 373.873 87.002 376.235 87.3977C383.266 88.5752 390.278 89.9528 397.354 90.7445C404.558 91.5511 411.829 91.7871 419.08 92.1654C419.727 92.1992 421.007 91.3971 420.982 91.0587C420.838 89.1088 420.83 86.9489 419.961 85.2884C416.717 79.1022 413.143 73.091 409.725 66.9983C405.649 59.7437 401.929 52.3533 400.679 43.9796C400.208 40.8262 399.579 37.6967 398.944 34.111ZM510.702 94.7947C510.505 94.7922 510.303 94.7902 510.105 94.7877C509.924 95.8059 509.636 96.8187 509.586 97.8431C509.306 103.484 508.372 108.935 506.424 114.311C503.908 121.26 501.755 128.363 499.869 135.512C498.473 140.812 498.77 140.823 504.324 140.518C508.911 140.266 513.506 140.151 518.101 140.105C518.764 140.099 519.439 140.817 520.111 141.2C519.645 141.805 519.287 142.778 518.698 142.952C516.417 143.62 514.087 144.249 511.732 144.486C509.08 144.752 506.387 144.592 503.711 144.593C502.093 144.593 501.368 145.298 501.401 146.982C501.454 149.723 501.351 152.467 501.306 155.21C501.113 168.242 500.89 181.274 500.721 194.306C500.631 201.509 500.594 208.714 500.627 215.917C500.631 216.605 501.273 217.87 501.664 217.888C507.001 218.135 512.349 218.213 517.694 218.324C518.847 218.347 519.176 217.701 519.213 216.619C519.608 205.446 520.024 194.274 520.465 183.103C520.922 171.592 521.449 160.082 521.869 148.569C521.984 145.435 522.425 142.141 521.675 139.184C520.16 133.221 517.924 127.44 515.993 121.583C513.564 114.219 511.122 106.861 511.122 98.9659C511.122 97.5755 510.85 96.1851 510.702 94.7947ZM729.147 297.796V297.22C737.172 297.22 745.196 297.215 753.221 297.228C754.354 297.228 755.272 297.059 755.371 295.647C756.095 285.329 756.89 275.011 757.532 264.689C757.693 262.054 757.289 261.828 754.584 261.655C737.748 260.586 720.912 259.521 704.075 258.46C701.321 258.286 701.349 258.305 701.724 261.12C702.486 266.826 703.478 272.52 703.853 278.255C704.207 283.773 704.063 289.343 703.824 294.873C703.692 297.911 703.4 297.829 706.319 297.812C713.928 297.767 721.537 297.796 729.147 297.796ZM288.679 193.285C288.679 193.33 288.679 193.376 288.678 193.422C279.625 193.422 270.571 193.414 261.518 193.426C258.64 193.429 258.686 193.453 258.634 196.24C258.429 207.21 258.228 218.18 257.957 229.147C257.787 236.003 257.464 242.854 257.302 249.709C257.285 250.411 257.769 251.621 258.255 251.758C261.757 252.74 262.899 251.746 262.666 248.188C262.626 247.572 262.592 246.955 262.554 246.339C262.415 244.073 262.766 243.67 265.033 243.651C270.794 243.605 276.556 243.612 282.317 243.541C293.701 243.4 305.083 243.198 316.467 243.079C318.183 243.062 318.869 242.302 318.759 240.709C318.51 237.087 318.166 233.471 317.97 229.847C317.873 228.063 317.003 227.232 315.312 227.13C311.276 226.885 307.238 226.436 303.203 226.464C291.683 226.544 280.166 226.843 268.647 227.007C264.916 227.061 263.116 225.433 263.298 221.669C263.452 218.48 264.11 215.298 264.759 212.157C265.357 209.261 266.095 208.672 269.088 208.43C272.844 208.126 276.614 207.758 280.375 207.796C292.374 207.917 304.373 208.16 316.369 208.492C318.355 208.547 318.912 207.867 318.885 206.076C318.83 202.579 318.795 199.078 318.891 195.583C318.937 193.897 318.362 193.253 316.655 193.262C307.33 193.309 298.004 193.285 288.679 193.285ZM611.543 240.775C611.646 240.768 611.749 240.762 611.852 240.755C611.852 234.655 611.877 228.555 611.84 222.454C611.811 217.037 611.691 211.619 611.638 206.201C611.617 204.08 610.683 202.961 608.492 202.708C605.499 202.362 602.542 201.606 599.545 201.396C595.658 201.125 591.742 201.132 587.843 201.191C585.961 201.219 584.825 202.185 585.047 204.36C585.245 206.334 585.167 208.335 585.278 210.32C586.344 229.564 587.51 248.803 588.461 268.053C588.893 276.81 588.934 285.588 589.103 294.354C589.132 295.881 590.067 295.947 591.162 295.956C596.103 296.001 601.04 296.017 605.981 296.108C607.409 296.133 608.039 295.725 608.134 294.156C609.229 276.362 610.399 258.568 611.543 240.775ZM328.754 183.452C328.552 183.482 328.35 183.512 328.149 183.542C328.047 184.901 327.878 186.259 327.855 187.62C327.603 202.706 327.425 217.794 327.115 232.878C326.995 238.702 326.609 244.52 326.301 250.339C326.207 252.112 325.333 252.95 323.391 252.965C310.635 253.063 297.881 253.27 285.126 253.42C279.09 253.491 273.054 253.575 267.019 253.521C265.148 253.503 264.605 254.135 264.845 255.93C265.073 257.623 265.092 259.349 265.121 261.062C265.322 273.121 265.532 285.177 265.651 297.236C265.665 298.661 266.224 298.788 267.374 298.759C274.572 298.566 281.77 298.356 288.97 298.282C301.248 298.154 313.527 298.125 325.805 298.039C326.586 298.035 327.367 297.903 328.147 297.829C327.992 297.644 327.837 297.454 327.681 297.265C328.268 296.363 328.659 295.074 329.489 294.659C330.718 294.037 331.028 293.25 331.051 292.081C331.105 289.405 331.247 286.733 331.225 284.061C331.08 266.571 331.044 249.079 330.69 231.594C330.383 216.449 329.708 201.311 329.173 186.17C329.141 185.26 328.898 184.358 328.754 183.452ZM217.457 219.812C216.232 220.221 215.674 220.461 215.092 220.592C212.954 221.072 210.85 221.633 208.699 220.418C207.689 219.848 206.453 219.362 205.323 219.368C187.348 219.457 169.375 219.611 151.401 219.797C144.474 219.869 137.549 220.078 130.622 220.17C129.267 220.188 128.848 220.66 128.943 222.021C129.241 226.262 129.456 230.511 129.637 234.76C130.51 255.243 132.037 275.711 130.968 296.236C130.9 297.537 131.4 297.977 132.613 297.944C134.396 297.899 136.181 297.87 137.963 297.915C139.393 297.952 139.872 297.318 139.872 295.927C139.872 292.637 139.949 289.343 140.073 286.054C140.521 274.196 140.766 262.318 143.018 250.613C143.273 249.285 143.663 247.925 144.295 246.742C145.316 244.83 147.059 244.757 148.069 246.677C149.207 248.84 150.361 251.141 150.777 253.511C152.102 261.065 153.085 268.679 154.205 276.267C154.313 277 154.457 277.728 154.584 278.457C154.768 278.445 154.954 278.433 155.139 278.42C155.256 277.778 155.41 277.14 155.485 276.493C156.473 267.979 157.228 259.431 158.514 250.964C159.292 245.843 160.784 240.817 162.21 235.821C162.502 234.797 163.912 233.453 164.837 233.429C165.756 233.405 167.102 234.678 167.577 235.7C168.697 238.108 169.593 240.659 170.254 243.235C172.946 253.735 173.575 264.487 173.979 275.262C174.046 277.061 174.16 278.852 174.252 280.648C174.465 280.652 174.678 280.656 174.891 280.66C175.166 278.297 175.34 275.921 175.733 273.582C177.136 265.208 178.571 256.84 180.1 248.489C180.405 246.826 181.012 244.799 183.003 244.676C185.07 244.549 185.614 246.628 186.174 248.203C188.928 255.933 190.486 263.952 191.325 272.075C192.114 279.709 192.475 287.392 192.953 295.054C193.165 298.446 193.081 298.426 189.599 299.122C188.214 299.398 186.857 299.813 185.487 300.163C185.768 300.686 185.947 300.834 186.126 300.834C190.79 300.855 195.454 300.851 200.119 300.88C201.68 300.892 202.019 300.011 202.105 298.648C202.473 292.831 202.953 287.017 203.33 281.199C203.739 274.904 204.245 268.613 204.413 262.314C204.699 251.623 204.711 240.926 204.942 230.234C204.985 228.263 205.43 226.283 205.874 224.35C206.03 223.667 206.739 223.11 207.195 222.496C207.564 223.147 208.065 223.761 208.263 224.46C208.464 225.166 208.424 225.96 208.385 226.71C207.888 236.506 207.567 246.316 206.813 256.092C205.773 269.58 206.864 282.949 208.411 296.318C208.56 297.602 209.144 298.294 210.416 298.525C214.536 299.266 218.632 300.06 222.834 298.973C225.155 298.376 227.534 298.002 229.882 297.504C230.508 297.372 231.117 297.162 231.734 296.989C230.863 296.371 230.02 296.252 229.179 296.116C225.869 295.577 222.552 295.079 219.255 294.469C218.008 294.239 217.189 293.465 217.213 292.032C217.383 282.159 217.454 272.277 217.739 262.408C217.848 258.622 218.378 258.332 222.227 258.133C223.669 258.059 225.109 257.985 226.55 257.912C226.565 257.649 226.579 257.387 226.594 257.125C224.896 256.794 223.189 256.498 221.5 256.122C218.395 255.43 218.126 255.169 218.032 252.05C217.804 244.441 217.624 236.83 217.467 229.219C217.405 226.227 217.457 223.234 217.457 219.812ZM49.5871 211.624C47.8611 210.838 46.1025 210.116 44.4156 209.255C40.2705 207.136 39.6669 204.309 42.7822 200.887C45.2663 198.157 45.2638 194.576 46.4398 191.402C46.5571 191.085 46.485 190.67 46.6609 190.408C47.0561 189.821 47.5519 189.301 48.0069 188.753C48.4404 189.302 49.1215 189.791 49.2701 190.407C50.8376 196.928 52.2557 203.485 53.9002 209.985C54.1312 210.897 55.2178 211.867 56.145 212.282C60.5862 214.273 64.5916 216.801 67.7946 220.53C70.2865 223.431 71.8907 226.694 72.0809 230.548C72.155 232.052 72.4865 232.99 74.3076 232.982C76.1551 232.974 76.3404 234.615 76.4911 235.951C76.6525 237.381 75.7957 238.06 74.3694 238.097C73.0152 238.132 72.4148 238.803 72.5487 240.221C72.7158 241.994 72.8035 243.779 72.8183 245.56C72.8291 246.845 73.2721 247.46 74.6395 247.388C75.869 247.325 77.1083 247.468 78.3415 247.442C79.8786 247.409 80.3764 248.121 80.2784 249.61C80.0606 252.915 79.4804 253.544 76.0666 253.804C73.0983 254.03 73.1185 254.029 73.1819 257.01C73.2737 261.329 73.3705 265.653 73.3618 269.972C73.3606 270.569 72.7677 271.161 72.449 271.754C72.1126 271.236 71.6152 270.762 71.4678 270.194C70.7958 267.608 70.2367 264.994 69.5972 262.4C69.4943 261.984 69.1904 261.614 68.7276 260.761C68.2718 261.824 67.9124 262.437 67.7403 263.096C67.016 265.883 66.5223 268.745 65.6004 271.466C64.9079 273.508 65.8269 273.722 67.3833 273.743C70.6073 273.78 73.8317 273.817 77.0548 273.891C79.4545 273.945 81.8521 274.097 84.2517 274.13C85.937 274.155 86.7284 274.871 86.7992 276.609C87.0372 282.434 87.3884 288.256 87.624 294.082C87.6746 295.342 87.8253 296.227 89.3731 296.24C90.5782 296.248 91.0962 295.861 91.0946 294.576C91.0353 239.956 91.0736 185.336 90.8516 130.717C90.8282 125.035 93.1319 120.379 95.0544 115.45C98.4661 106.7 102.348 98.1128 105.317 89.2187C107.3 83.2804 108.322 76.9703 109.256 70.7487C110.068 65.344 110.136 59.829 110.571 54.3658C110.669 53.1401 110.842 51.9045 111.155 50.7196C111.278 50.2568 111.882 49.9216 112.267 49.5284C112.545 50.0077 113.063 50.4886 113.059 50.9654C113.044 53.0211 113.061 55.1057 112.73 57.1248C111.147 66.7809 112.616 76.4301 112.582 86.0805C112.55 95.1636 116.576 102.911 119.79 110.957C121.392 114.967 123.216 118.887 124.876 122.874C125.112 123.441 125.265 124.399 124.964 124.736C124.645 125.094 123.72 125.059 123.091 124.971C117.117 124.133 111.153 123.227 105.179 122.395C104.164 122.254 103.112 122.375 102.078 122.375C102.012 122.659 101.947 122.942 101.881 123.225C102.658 123.657 103.391 124.333 104.219 124.484C110.477 125.623 116.738 126.763 123.031 127.684C126.453 128.186 126.506 127.992 126.506 131.376C126.509 151.482 126.479 171.587 126.507 191.693C126.514 197.103 125.911 196.466 131.163 196.409C134.729 196.37 138.303 196.395 141.861 196.595C144.373 196.736 146.212 195.356 148.015 194.108C153.637 190.213 159.133 186.133 164.657 182.097C165.201 181.699 165.622 181.124 166.071 180.607C168.313 178.031 168.205 177.694 166.465 174.788C165.122 172.546 164.032 170.124 163.107 167.678C162.871 167.055 163.686 166.034 164.019 165.196C164.829 165.582 165.86 165.772 166.411 166.39C168.383 168.604 169.24 171.317 169.679 174.24C169.88 175.581 170.369 177.068 171.21 178.096C182.078 191.382 193.867 203.821 206.173 215.78C207.445 217.016 208.751 217.685 210.538 217.604C212.646 217.508 214.762 217.582 217.172 217.582C217.172 214.19 217.198 210.656 217.168 207.122C217.063 195.048 216.949 182.974 216.806 170.901C216.789 169.477 217.438 168.95 218.769 168.87C222.809 168.627 226.849 168.368 230.882 168.031C231.644 167.967 232.543 167.705 233.092 167.214C237.636 163.142 242.139 159.023 246.58 154.839C247.265 154.194 247.569 153.146 248.049 152.284C247.063 151.906 246.089 151.492 245.088 151.163C244.259 150.89 243.319 150.857 242.582 150.443C242.198 150.228 241.939 149.388 242.019 148.895C242.067 148.598 242.86 148.291 243.348 148.231C243.868 148.167 244.504 148.25 244.949 148.51C247.911 150.24 251.211 150.002 254.386 149.963C278.119 149.666 301.85 149.26 325.582 148.863C326.629 148.845 327.671 148.589 328.121 148.526C328.466 147.056 328.687 146.11 328.909 145.164C329.716 145.795 331.037 146.29 331.247 147.079C332.51 151.837 336.041 155.163 338.548 159.12C340.159 161.664 342.037 164.036 343.779 166.497C344.933 168.126 344.654 168.724 342.593 168.847C337.326 169.162 332.056 169.426 326.737 170.129C327.601 170.24 328.462 170.413 329.329 170.45C337.551 170.806 345.775 171.147 353.999 171.474C357.402 171.609 357.968 171.906 358.215 175.357C358.828 183.906 359.438 192.464 359.688 201.029C360.164 217.279 360.339 233.539 360.732 249.793C360.999 260.833 361.391 271.87 361.8 282.904C361.901 285.642 362.323 288.363 362.516 291.101C362.624 292.625 363.293 293.279 364.849 293.292C366.49 293.304 368.157 293.407 369.756 293.74C370.494 293.897 371.095 294.7 371.758 295.206C371.068 295.638 370.407 296.367 369.682 296.437C367.779 296.622 365.848 296.536 363.929 296.511C363.462 296.507 362.794 296.495 362.562 296.207C361.007 294.276 358.837 294.683 356.854 294.72C349.723 294.864 342.595 295.128 335.467 295.354C334.988 295.371 334.426 295.309 334.055 295.536C333.484 295.881 333.045 296.445 332.55 296.919C333.099 297.294 333.638 297.977 334.198 297.994C337.42 298.101 340.647 298.035 343.872 298.055C355.121 298.129 366.369 298.216 377.618 298.282C378.11 298.286 378.604 298.142 379.416 298.018C377.585 296.82 375.97 295.96 374.591 294.815C372.243 292.868 371.187 290.245 371.196 287.186C371.273 263.787 371.322 240.39 371.422 216.992C371.533 191.331 371.686 165.67 371.827 140.009C371.909 124.983 372.044 109.957 372.047 94.9314C372.048 92.8822 372.793 92.2758 374.67 92.2865C378.924 92.3108 383.178 92.2379 387.432 92.1926C388.146 92.1848 388.861 92.1152 389.575 92.074C389.589 91.8867 389.604 91.6998 389.618 91.5124C388.944 91.356 388.275 91.1657 387.594 91.048C383.336 90.3126 379.067 89.6399 374.819 88.8514C371.895 88.3092 371.459 87.4932 372.918 84.9779C376.426 78.9342 379.829 72.8123 383.674 66.9856C391.261 55.4861 396.323 43.0915 397.22 29.2926C397.653 22.6202 397.123 15.8893 397.172 9.18603C397.189 6.87707 397.6 4.56565 397.924 2.26864C398.005 1.6947 398.369 1.11045 398.745 0.645202C399.012 0.315822 399.616 -0.0868349 399.892 0.0165079C400.319 0.177081 400.802 0.698733 400.893 1.14298C401.084 2.07019 401.126 3.05297 401.066 4.00282C400.779 8.51902 400.619 13.0538 400.077 17.5412C399.012 26.3652 401.034 34.8694 402.331 43.4703C403.821 53.3604 408.774 61.7604 413.501 70.2699C415.864 74.5239 418.458 78.6563 420.682 82.9803C421.682 84.9273 422.148 87.1827 422.642 89.348C422.951 90.7186 422.782 92.0765 424.178 93.1606C424.532 93.4377 423.115 95.5115 423.177 96.7273C423.898 111.39 424.791 126.043 425.524 140.705C425.705 144.367 425.351 148.053 425.446 151.722C425.573 156.648 426.051 161.566 426.109 166.491C426.257 178.905 426.261 191.321 426.315 203.737C426.319 204.215 426.269 204.697 426.216 205.173C425.882 207.942 425.878 207.942 423.144 208.905C426.784 211.729 425.594 215.638 425.586 219.208C425.569 227.781 425.413 236.356 425.153 244.925C425.018 249.491 424.865 249.486 420.859 251.467C424.956 254.098 423.885 258.244 423.959 261.947C424.194 273.125 424.194 284.308 424.326 295.49C424.342 296.952 423.708 297.644 422.345 297.845C421.065 298.035 419.793 298.249 418.537 298.714H431.573C427.723 293.959 429.46 288.787 429.32 283.987C428.97 272.195 429.222 260.386 429.197 248.583C429.172 238.361 429.049 228.139 429.073 217.917C429.106 203.098 429.143 188.278 429.349 173.461C429.489 163.247 429.938 153.038 430.189 142.825C430.238 140.817 430.823 139.478 433.071 139.506C433.071 139.193 433.154 138.919 433.059 138.818C430.799 136.455 430.724 136.426 432.182 133.268C435.138 126.86 438.091 120.446 441.22 114.121C443.386 109.737 443.806 105.043 444.086 100.327C444.378 95.3328 444.337 90.3193 444.588 85.3217C444.646 84.2385 445.514 82.2338 445.712 82.2704C447.511 82.6027 446.84 84.2764 446.737 85.2793C446.078 91.6952 446.379 98.0881 447.861 104.303C449.249 110.15 451.341 115.831 453.165 121.572C454.655 126.276 456.603 130.877 457.607 135.678C458.53 140.068 458.661 144.658 458.797 149.17C459.254 164.388 459.691 179.609 459.868 194.831C459.946 201.61 459.361 208.395 459.143 215.18C459.123 215.791 459.551 216.418 459.773 217.038C460.177 216.468 460.778 215.948 460.938 215.317C461.132 214.547 461.025 213.676 460.934 212.862C460.098 205.614 465.344 202.127 470.005 198.341C470.647 197.82 471.833 197.808 472.76 197.823C477.561 197.901 482.366 197.929 487.15 198.272C488.76 198.387 490.444 199.153 491.848 200.018C494.146 201.431 496.242 203.17 498.642 204.931C498.77 204.197 498.91 203.759 498.918 203.32C499.083 189.6 499.227 175.88 499.4 162.16C499.466 156.881 499.49 151.596 499.758 146.325C499.816 145.105 500.783 143.931 501.401 142.587C501.434 142.599 501.092 142.395 500.742 142.378C498.078 142.242 497.18 141.534 497.629 138.845C498.304 134.803 499.247 130.778 500.425 126.852C502.163 121.076 504.621 115.49 506.008 109.642C507.309 104.147 507.651 98.4207 508.363 92.7892C508.738 89.7959 508.956 86.7825 509.356 83.7926C509.426 83.2541 510.027 82.7859 510.381 82.2857C510.653 82.7781 511.106 83.2499 511.163 83.7666C511.785 89.2191 512.596 94.6662 512.86 100.139C513.173 106.679 514.943 112.83 516.953 118.96C519.151 125.668 521.506 132.329 523.524 139.092C524.088 140.985 523.808 143.167 523.73 145.209C522.824 168.583 521.823 191.954 521 215.331C520.839 219.822 521.235 220.122 515.923 220.139C511.468 220.153 507.013 219.93 502.558 219.739C501.183 219.68 500.524 220.055 500.544 221.549C500.647 230.878 500.746 240.209 500.734 249.539C500.734 251.472 501.528 252.003 503.287 252.101C505.127 252.204 506.964 252.538 508.767 252.928C510.064 253.208 511.283 254.069 510.756 255.49C510.439 256.338 509.142 257.365 508.285 257.364C505.769 257.361 503.241 256.94 500.742 256.546C500.277 256.472 499.622 255.81 499.548 255.343C499.293 253.685 498.251 253.508 496.888 253.524C484.198 253.665 471.508 253.797 458.814 253.881C456.907 253.894 456.43 254.725 456.438 256.528C456.471 267.917 456.405 279.31 456.356 290.698C456.339 294.44 456.319 294.494 460.061 294.564C471.31 294.774 482.559 294.943 493.808 295.103C495.109 295.12 496.415 294.864 497.707 294.922C499.532 295.009 500.153 294.35 500.264 292.444C500.754 283.958 501.421 275.485 502.068 267.007C502.158 265.854 502.373 264.669 502.78 263.594C503.064 262.845 503.772 262.252 504.291 261.593C504.86 262.211 505.802 262.766 505.93 263.466C506.515 266.69 507.202 269.951 507.235 273.208C507.293 278.964 506.889 284.724 506.696 290.484C506.527 295.383 506.766 295.622 511.583 295.564C513.712 295.54 515.837 295.544 517.965 295.503C518.464 295.49 518.966 295.346 519.913 295.19C516.714 293.193 517.002 290.175 517.002 287.581C517.018 275.995 517.125 264.405 517.57 252.832C517.883 244.678 518.785 236.542 521.193 228.676C521.544 227.524 522.124 226.369 522.861 225.423C523.94 224.044 525.299 224.196 525.83 225.85C526.493 227.916 527.057 230.113 527.098 232.264C527.304 242.821 527.514 253.385 527.353 263.94C527.209 273.467 526.6 282.99 526.155 292.509C526.089 293.901 526.567 294.593 527.979 294.593C530.441 294.584 532.904 294.58 535.37 294.589C536.543 294.589 536.795 294.012 536.774 292.884C536.338 272.792 535.946 252.701 535.559 232.609C535.391 223.898 535.222 215.187 535.148 206.475C535.135 204.845 534.509 204.214 532.99 204.23C532.854 204.231 532.714 204.227 532.582 204.197C531.442 203.93 529.778 204.19 529.754 202.489C529.733 200.859 531.145 200.299 532.562 199.987C534.382 199.588 535.979 199.514 536.651 201.826C536.778 202.263 537.684 202.742 538.232 202.746C546.051 202.799 553.874 202.816 561.693 202.699C562.446 202.688 563.455 201.89 563.888 201.179C573.37 185.53 582.849 169.876 592.154 154.121C593.476 151.884 594.077 149.164 594.719 146.595C596.358 140.032 595.683 133.424 595.028 126.785C594.217 118.587 593.813 110.353 595.329 102.171C595.563 100.901 595.922 99.6065 596.498 98.4652C596.848 97.7793 597.737 97.3676 598.384 96.8327C598.849 97.5327 599.635 98.1943 599.726 98.9395C599.985 101.108 600.167 103.323 600.027 105.497C599.393 115.352 598.252 125.19 598.042 135.051C597.877 142.867 599.207 150.538 603.3 157.571C611.642 171.91 619.84 186.335 627.84 200.868C629.084 203.126 629.29 206.127 629.405 208.809C630.401 231.707 630.842 254.617 629.907 277.527C629.652 283.74 629.574 290.023 627.326 295.96C629.878 297.294 630.957 296.746 631.093 294.132C631.941 277.481 632.781 260.835 633.646 244.187C634.292 231.722 634.972 219.257 635.635 206.792C635.787 203.94 635.894 203.881 638.846 204.046C644.874 204.383 650.898 204.728 656.93 204.963C659.763 205.073 659.718 204.957 659.911 202.195C659.956 201.545 660.455 200.927 660.747 200.294C661.373 200.717 662.225 201.004 662.588 201.592C663.465 203.021 663.563 204.487 662.398 205.979C661.916 206.593 661.76 207.603 661.76 208.432C661.793 220.027 662.085 231.625 661.904 243.216C661.661 258.506 661.072 273.792 660.582 289.076C660.525 290.92 660.236 292.769 659.899 294.589C659.602 296.182 660.195 296.697 661.719 296.684C663.226 296.668 664.741 296.767 666.24 296.931C667.858 297.112 668.422 296.491 668.434 294.864C668.521 285.671 668.747 276.481 668.817 267.287C668.912 254.596 668.908 241.903 668.945 229.21C668.949 227.817 668.867 226.653 667.269 225.825C666.623 225.492 666.318 223.554 666.623 222.587C666.969 221.493 668.171 220.67 669.003 219.728C669.423 220.246 670.102 220.71 670.226 221.291C670.95 224.686 670.909 224.756 674.413 224.689C695.811 224.283 717.21 223.779 738.608 223.448C751.369 223.249 764.133 223.248 776.893 223.277C782.196 223.289 782.723 223.82 782.464 229.155C782.266 233.324 781.628 237.474 781.105 241.623C781.039 242.158 780.582 242.986 780.174 243.075C778.527 243.436 778.494 244.598 778.49 245.861C778.47 261.428 778.375 276.996 778.457 292.559C778.486 297.808 778.853 296.812 782.793 296.8C787.594 296.783 792.395 296.709 797.2 296.664C797.612 296.66 798.065 296.553 798.423 296.688C798.983 296.902 799.477 297.285 800 297.594C799.502 297.858 799.02 298.319 798.509 298.344C796.731 298.438 794.944 298.368 793.161 298.389C792.28 298.397 791.399 298.467 790.324 298.521C790.752 300.612 789.402 301.114 787.911 301.361C784.687 301.897 781.471 302.811 778.19 301.588C777.65 301.39 776.971 301.559 776.357 301.58C770.194 301.777 764.03 302.028 757.862 302.152C756.272 302.185 754.654 301.934 754.473 299.69C754.453 299.389 753.279 298.957 752.641 298.957C743.652 298.994 734.664 299.081 725.68 299.188C718.68 299.274 711.684 299.36 704.689 299.587C703.68 299.62 702.511 300.221 701.737 300.921C700.497 302.033 699.291 302.798 697.545 302.634C691.196 302.037 684.838 301.526 678.493 300.88C677.835 300.814 677.246 300.056 676.624 299.616C677.312 299.192 677.987 298.422 678.695 298.393C684.381 298.154 690.076 298.105 695.766 297.903C702.379 297.664 701.798 299.006 702.441 291.698C703.248 282.488 701.798 273.356 700.505 264.249C700.242 262.416 700.011 260.573 699.612 258.768C699.2 256.92 699.9 256.491 701.638 256.602C714.579 257.432 727.524 258.185 740.465 258.993C745.534 259.31 750.594 259.686 755.659 260.073C758.586 260.297 759.192 260.728 759.179 263.693C759.163 269.379 759.006 275.077 758.661 280.755C758.364 285.543 757.771 290.319 757.195 295.083C757.005 296.651 757.401 297.166 759.011 297.125C764.289 296.997 769.572 296.968 774.855 296.968C776.407 296.968 776.93 296.544 776.901 294.815C776.703 281.446 776.629 268.074 776.563 254.703C776.547 251.755 776.551 248.79 776.847 245.863C777.062 243.729 776.263 243.284 774.348 243.299C763.643 243.388 752.937 243.49 742.232 243.391C721.995 243.202 701.757 242.884 681.52 242.601C680.429 242.586 679.313 242.508 678.259 242.253C677.765 242.134 677.394 241.52 676.966 241.131C677.386 240.729 677.752 240.073 678.238 239.97C679.976 239.602 681.75 239.272 683.521 239.192C693.934 238.723 704.347 238.134 714.764 237.951C735.002 237.594 755.239 237.474 775.476 237.266C778.313 237.237 778.309 237.263 778.614 240.119C778.643 240.358 778.811 240.581 779.149 241.328C779.45 240.229 779.709 239.627 779.767 239.005C780.117 235.253 780.409 231.495 780.743 227.741C780.916 225.836 780.15 225 778.173 224.999C769.802 224.995 761.432 224.761 753.065 224.881C738.588 225.088 724.119 225.525 709.646 225.809C697.368 226.05 685.09 226.221 672.811 226.398C671.362 226.419 670.592 226.742 670.592 228.499C670.596 243.935 670.526 259.371 670.427 274.805C670.386 281.805 670.23 288.8 670.135 295.799C670.094 298.722 669.987 298.833 667.129 298.677C665.416 298.582 663.699 298.549 661.995 298.389C660.426 298.245 659.03 298.199 658.264 299.999C658.087 300.414 657.264 300.789 656.737 300.785C651.388 300.773 646.039 300.76 640.695 300.53C639.6 300.48 638.537 299.538 637.463 299.006C638.513 298.397 639.521 297.347 640.617 297.257C645.529 296.841 650.462 296.524 655.386 296.536C657.503 296.54 658.202 295.869 658.334 293.942C658.775 287.309 659.545 280.681 659.693 274.039C660.018 259.091 660.084 244.135 660.171 229.181C660.212 222.391 660.01 215.599 660.018 208.809C660.022 207.101 659.495 206.649 657.762 206.617C651.796 206.507 645.829 206.241 639.876 205.867C637.986 205.748 637.393 206.219 637.294 208.166C635.832 237.421 634.272 266.674 632.802 295.927C632.699 297.94 632.007 298.405 630.043 298.36C616.809 298.059 603.568 297.899 590.33 297.693C586.184 299.472 581.77 298.928 577.442 299.159C577.101 299.179 576.726 299.27 576.421 299.167C575.482 298.854 574.572 298.463 573.654 298.101C574.539 297.582 575.384 296.742 576.322 296.61C578.694 296.277 581.107 296.194 583.503 296.137C587.386 296.046 587.588 295.993 587.489 292.04C587.263 283.06 587.044 274.076 586.587 265.105C585.578 245.237 584.413 225.375 583.334 205.509C583.083 200.845 584.109 199.614 588.802 199.311C596.189 198.832 603.452 199.787 610.633 201.492C612.066 201.831 612.935 202.688 613.05 204.181C613.244 206.778 613.565 209.378 613.557 211.976C613.483 239.09 612.009 266.147 609.937 293.172C609.826 294.646 610.127 295.507 611.667 295.478C615.986 295.4 620.309 295.359 624.608 295.041C625.312 294.988 626.304 293.679 626.494 292.806C627.07 290.134 627.597 287.396 627.655 284.674C628.005 267.394 628.359 250.11 628.425 232.827C628.458 224.193 628.017 215.549 627.507 206.926C627.358 204.484 626.646 201.858 625.452 199.732C617.699 185.925 609.752 172.226 601.847 158.505C599.99 155.277 598.306 152.004 597.881 148.223C597.795 147.452 597.49 146.706 597.132 145.364C596.687 146.348 596.366 146.742 596.35 147.148C596.181 151.022 594.262 154.248 592.368 157.405C583.701 171.872 574.902 186.261 566.226 200.725C565.666 201.662 565.563 203.003 565.596 204.146C565.79 211.823 566.119 219.496 566.325 227.173C566.642 238.827 567.058 250.481 567.132 262.136C567.198 273.175 566.881 284.213 566.725 295.251C566.72 295.593 566.745 295.98 566.593 296.264C566.263 296.89 565.827 297.462 565.436 298.055C564.917 297.508 564.065 297.026 563.937 296.4C563.266 293.111 562.521 289.804 562.274 286.469C561.084 270.466 559.927 254.454 559.017 238.431C558.564 230.495 558.712 222.527 558.49 214.577C558.407 211.519 558.951 208.722 560.808 206.239C561.042 205.929 561.141 205.518 561.384 204.964C560.845 204.822 560.421 204.618 560.001 204.616C552.795 204.585 545.59 204.607 538.388 204.546C536.811 204.532 536.811 205.435 536.832 206.552C536.992 215.743 537.173 224.934 537.285 234.126C537.449 248.12 537.511 262.116 537.729 276.11C537.812 281.59 538.153 287.071 538.475 292.546C538.524 293.349 539.162 294.099 539.426 294.906C539.59 295.416 539.813 296.256 539.574 296.47C539.187 296.824 538.446 296.882 537.853 296.89C537.49 296.894 537.124 296.421 536.762 296.421C532.463 296.445 528.169 296.466 523.87 296.585C518.472 296.734 513.074 297.063 507.676 297.067C506.881 297.067 505.642 295.836 505.387 294.947C504.942 293.411 505.012 291.698 505.037 290.064C505.127 283.069 505.312 276.077 505.374 269.086C505.382 267.979 504.925 266.867 504.682 265.76C504.444 265.772 504.201 265.784 503.962 265.797C503.826 266.628 503.616 267.456 503.558 268.296C503.011 276.506 502.471 284.72 501.969 292.933C501.751 296.491 501.796 296.614 498.169 296.623C488.295 296.647 478.417 296.573 468.543 296.507C465.114 296.483 461.68 296.293 458.254 296.371C457.406 296.392 456.57 297.154 455.734 297.59C455.277 297.829 454.812 298.352 454.392 298.311C450.715 297.94 447.046 297.499 443.386 296.989C442.871 296.919 442.426 296.363 441.356 295.626C442.76 295.14 443.579 294.654 444.419 294.609C447.087 294.469 449.776 294.35 452.436 294.51C454.186 294.617 454.565 293.934 454.569 292.419C454.581 288.437 454.729 284.46 454.742 280.483C454.766 272.454 454.742 264.426 454.733 256.398C454.733 253.998 454.577 253.932 452.135 254C449.327 254.08 446.515 254.05 443.707 253.966C443.242 253.952 442.789 253.421 442.327 253.129C442.838 252.803 443.336 252.227 443.863 252.195C446.326 252.045 448.808 252.157 451.262 251.964C454.4 251.719 454.762 251.113 454.878 248.036C455.038 243.581 455.314 239.129 455.643 234.683C455.722 233.614 456.051 232.505 456.529 231.544C456.813 230.977 457.57 230.438 458.188 230.336C458.484 230.286 459.053 231.229 459.316 231.806C459.534 232.281 459.584 232.887 459.538 233.422C459.114 238.731 458.694 244.042 458.167 249.341C458.077 250.219 457.476 251.045 457.047 252.041C460.584 252.041 463.907 252.06 467.23 252.037C477.248 251.969 487.261 251.857 497.279 251.834C498.675 251.831 499.074 251.322 499.058 250.03C498.959 240.631 498.864 231.232 498.844 221.833C498.84 220.186 498.305 219.697 496.666 219.821C491.535 220.211 486.401 220.533 481.262 220.716C479.953 220.762 478.619 220.196 477.297 219.911C477.915 217.895 479.833 218.124 481.2 218.047C485.581 217.803 489.979 217.832 494.368 217.87C497.592 217.899 497.6 217.973 497.6 214.785C497.596 213.207 497.427 211.609 497.617 210.055C497.942 207.429 497.012 205.545 494.805 204.184C494.162 203.79 493.582 203.299 492.997 202.825C490.522 200.828 487.858 199.664 484.523 199.808C480.834 199.966 477.124 199.65 473.423 199.492C471.681 199.418 470.199 199.833 469.025 201.215C468.362 201.996 467.662 202.803 466.826 203.374C462.981 206.005 462.297 209.822 462.627 214.069C462.684 214.82 462.59 215.586 462.68 216.331C462.87 217.875 462.202 218.497 460.7 218.832C459.703 219.054 458.863 219.933 457.924 220.466C457.241 220.854 456.5 221.471 455.8 221.45C449.706 221.271 443.612 221.013 437.526 220.65C436.831 220.608 436.18 219.779 435.509 219.315C436.209 218.864 436.888 218.061 437.613 218.018C443.085 217.697 448.565 217.482 454.05 217.322C457.212 217.23 457.406 217.308 457.476 214.237C457.747 201.965 458.097 189.69 458.019 177.419C457.953 167.138 457.352 156.859 456.957 146.581C456.825 143.245 456.784 143.163 453.543 142.861C447.26 142.276 440.965 141.826 434.681 141.25C432.767 141.075 431.914 141.721 431.869 143.71C431.708 150.771 431.334 157.83 431.264 164.892C431.103 180.808 431.037 196.726 431 212.643C430.947 236.246 430.943 259.848 430.934 283.451C430.934 286.741 431.111 290.035 431.041 293.325C431 295.177 431.766 296.548 433.351 297.055C435.781 297.837 438.333 298.269 440.849 298.751C441.986 298.965 443.18 298.862 444.32 299.068C444.744 299.142 445.086 299.682 445.465 300.011C445.086 300.345 444.724 300.95 444.329 300.966C442.628 301.044 440.915 300.954 439.206 300.921C434.286 300.822 429.366 300.703 424.445 300.624C415.815 300.489 407.181 300.431 398.55 300.221C395.942 300.159 394.936 299.188 394.26 296.614C392.907 291.464 393.123 286.231 394.14 281.1C394.838 277.584 396.14 274.167 397.396 270.787C397.926 269.362 399.259 267.966 400.871 268.489C402.109 268.893 403.553 270.136 403.965 271.33C405.237 275.003 406.295 278.787 406.991 282.607C407.774 286.918 408.136 291.311 408.544 295.68C408.688 297.22 409.227 297.697 410.742 297.495C414.073 297.047 417.417 296.684 420.764 296.367C422.028 296.244 422.547 295.762 422.531 294.428C422.374 282.08 422.296 269.729 422.139 257.38C422.094 253.869 419.113 251.416 415.552 251.735C407.152 252.489 398.76 253.36 390.345 253.877C387.25 254.067 384.043 253.676 380.995 253.034C378.439 252.495 377.972 250.419 380.063 248.873C382.036 247.415 384.41 246.097 386.782 245.651C396.33 243.858 405.653 245.352 414.666 248.668C417.083 249.557 419.356 249.686 421.674 249.064C422.358 248.881 423.144 247.653 423.21 246.851C423.56 242.34 423.819 237.816 423.898 233.292C424.009 227.05 423.939 220.804 423.918 214.559C423.91 211.245 421.089 208.748 417.8 208.893C408.206 209.315 398.611 209.746 389.012 209.982C386.018 210.055 382.979 209.684 380.021 209.17C378.941 208.982 378.035 207.786 377.049 207.05C377.721 206.172 378.22 205.023 379.095 204.462C382.81 202.08 387.088 201.588 391.349 201.528C400.77 201.393 409.911 202.917 418.706 206.473C420.11 207.042 421.934 206.735 423.535 206.561C423.935 206.517 424.445 205.437 424.511 204.794C424.705 202.887 424.787 200.959 424.766 199.04C424.626 184.635 424.449 170.229 424.272 155.824C424.264 155.208 424.215 154.589 424.132 153.978C423.745 151.139 423.259 150.917 420.414 150.921C407.798 150.936 395.178 150.858 382.56 150.776C381.544 150.769 380.46 150.646 379.538 150.263C378.889 149.995 378.099 149.258 377.987 148.623C376.548 140.429 375.521 132.221 376.93 123.879C378.593 114.033 384.449 107.64 393.965 105.585C402.664 103.706 410.73 108.105 414.592 116.74C416.935 121.974 417.149 127.178 414.884 132.491C414.609 133.141 414.514 134.234 414.872 134.731C417.787 138.757 420.83 142.689 423.939 146.787C423.992 146.363 424.145 145.83 424.116 145.308C423.239 129.21 422.325 113.115 421.481 97.0164C421.39 95.2657 420.707 94.772 418.998 94.5979C404.751 93.1494 390.479 94.0309 376.218 93.9391C374.236 93.9264 373.8 94.6226 373.803 96.4329C373.82 109.058 373.767 121.683 373.708 134.308C373.588 160.449 373.447 186.59 373.319 212.731C373.198 237.5 373.081 262.268 372.969 287.038C372.947 291.908 375.922 295.223 381.621 296.466C384.427 297.08 387.304 297.364 390.127 297.911C390.827 298.047 391.437 298.644 392.089 299.027C391.37 299.356 390.651 299.978 389.933 299.978C375.8 299.962 361.667 299.871 347.534 299.805C343.28 299.785 339.023 299.723 334.772 299.842C333.57 299.875 332.393 300.522 331.187 300.81C330.705 300.925 330.153 300.929 329.671 300.818C328.39 300.526 327.127 299.826 325.861 299.834C307.131 299.957 288.399 300.04 269.675 300.439C264.084 300.559 258.515 301.633 252.934 302.255C252.189 302.337 251.415 302.399 250.685 302.284C250.221 302.21 249.811 301.794 249.377 301.534C249.767 301.127 250.099 300.456 250.557 300.353C252.56 299.904 254.591 299.554 256.629 299.295C258.122 299.105 259.648 298.99 261.147 299.072C263.273 299.183 264.125 298.286 264.115 296.203C264.089 290.443 264.278 284.678 264.13 278.922C263.932 271.248 263.454 263.577 263.193 255.903C263.134 254.174 262.614 253.293 260.789 253.537C260.587 253.564 260.378 253.545 260.172 253.547C255.388 253.588 255.434 253.589 255.56 248.864C256.029 231.311 256.448 213.758 256.935 196.205C256.986 194.359 256.783 193.074 254.546 192.743C253.73 192.623 252.653 191.625 252.453 190.836C252.295 190.215 253.246 189.255 253.815 188.533C254.091 188.183 254.613 188.018 255.037 187.796C257.79 186.359 258.359 186.599 258.578 189.71C258.723 191.781 260.016 191.699 261.441 191.691C278.939 191.603 296.437 191.514 313.934 191.445C315.441 191.439 316.949 191.558 318.456 191.633C319.858 191.703 320.592 192.426 320.58 193.857C320.539 198.796 320.477 203.735 320.47 208.674C320.468 210.537 319.194 210.281 318.038 210.259C305.418 210.02 292.799 209.727 280.178 209.565C276.825 209.521 273.469 209.948 270.111 210.014C267.839 210.059 266.509 210.907 266.211 213.278C265.862 216.056 265.146 218.803 264.996 221.585C264.838 224.52 265.724 225.289 268.628 225.25C280.151 225.098 291.674 224.814 303.197 224.74C307.234 224.714 311.286 225.033 315.311 225.407C318.776 225.728 319.248 226.244 319.605 229.662C319.997 233.408 320.341 237.17 320.438 240.933C320.51 243.705 319.345 244.701 316.575 244.741C300.045 244.976 283.514 245.198 266.983 245.408C264.255 245.443 264.17 245.446 264.397 248.176C264.749 252.413 264.185 251.835 268.189 251.799C285.887 251.64 303.584 251.455 321.282 251.262C324.571 251.227 324.718 251.143 324.816 247.736C325.149 236.15 325.365 224.56 325.709 212.973C326.044 201.663 326.435 190.353 326.94 179.049C326.995 177.807 327.967 176.607 328.513 175.387C329.104 176.59 330.132 177.763 330.216 179C330.853 188.375 331.463 197.756 331.776 207.146C332.265 221.814 332.64 236.488 332.827 251.162C333 264.673 332.904 278.19 332.809 291.702C332.797 293.456 333.288 293.749 334.881 293.695C342.968 293.423 351.059 293.246 359.15 293.078C360.283 293.053 360.923 292.921 360.844 291.492C360.239 280.541 359.511 269.589 359.199 258.628C358.661 239.773 358.495 220.908 357.973 202.052C357.728 193.216 357.008 184.393 356.525 175.563C356.44 174.017 355.873 173.277 354.156 173.211C336.678 172.542 319.21 171.54 301.727 171.162C289.601 170.9 277.457 171.48 265.321 171.653C263.816 171.674 262.3 171.581 260.81 171.385C260.316 171.319 259.887 170.764 259.428 170.433C259.838 170.046 260.191 169.443 260.671 169.316C261.719 169.039 262.831 168.88 263.916 168.887C274.479 168.964 285.044 169.248 295.605 169.143C303.898 169.061 312.187 168.519 320.477 168.173C326.44 167.924 332.403 167.675 338.365 167.395C339.419 167.346 340.466 167.145 341.892 166.968C339.924 164.123 338.197 161.609 336.452 159.107C334.648 156.52 332.884 153.9 330.97 151.396C330.532 150.823 329.544 150.35 328.819 150.365C306.669 150.819 284.521 151.36 262.371 151.828C259.014 151.899 255.651 151.708 252.293 151.576C251 151.525 250.482 151.945 249.747 153.186C248.413 155.437 246.46 157.368 244.566 159.229C242.025 161.725 239.289 164.024 236.649 166.42C236.368 166.676 236.164 167.018 235.66 167.653C236.639 167.75 237.27 167.85 237.903 167.867C240.645 167.94 243.394 167.894 246.129 168.069C249.738 168.3 250.24 168.83 250.377 172.42C250.75 182.151 251.206 191.881 251.374 201.616C251.599 214.715 251.63 227.819 251.642 240.921C251.645 243.998 251.308 247.082 250.98 250.147C250.885 251.04 250.277 251.878 249.903 252.74C249.583 252.737 249.262 252.734 248.941 252.731C248.471 251.024 247.681 249.335 247.587 247.608C247.165 239.872 246.795 232.127 246.679 224.38C246.492 211.757 246.54 199.131 246.434 186.506C246.413 184.041 246.128 181.578 245.994 179.113C245.904 177.467 245.171 176.658 243.423 176.668C240.201 176.686 236.977 176.571 233.754 176.508C232.245 176.478 230.713 176.588 229.237 176.354C228.102 176.174 227.038 175.555 225.942 175.131C226.557 174.14 227.124 173.116 227.802 172.171C228.253 171.542 228.863 171.027 229.402 170.46C229.336 170.278 229.27 170.096 229.204 169.914C225.904 170.151 222.6 170.343 219.312 170.695C218.998 170.729 218.563 171.758 218.565 172.324C218.607 183.3 218.66 194.276 218.806 205.252C218.971 217.666 219.221 230.08 219.455 242.493C219.512 245.511 219.752 248.527 219.712 251.542C219.686 253.459 220.545 254.177 222.298 254.515C230.786 256.156 239.243 257.956 247.977 257.597C249.212 257.547 250.47 258.05 251.717 258.297C251.739 258.617 251.762 258.938 251.784 259.259C251.046 259.568 250.319 260.107 249.57 260.138C247.865 260.206 246.117 260.204 244.442 259.913C236.767 258.58 229.117 259.566 221.458 259.986C220.26 260.051 219.554 260.523 219.528 261.856C219.342 271.66 219.093 281.467 218.997 291.274C218.991 291.888 220.034 292.954 220.707 293.061C224.9 293.728 229.114 294.358 233.344 294.646C236.683 294.873 240.057 294.56 243.415 294.572C243.963 294.576 244.51 295.025 245.058 295.268C244.65 295.638 244.291 296.24 243.826 296.338C235.844 298.022 227.897 299.986 219.834 301.119C216.304 301.617 212.492 300.579 208.897 299.817C207.995 299.628 207.009 297.886 206.803 296.73C206.218 293.428 206.019 290.06 205.657 286.716C205.587 286.078 205.461 285.444 205.36 284.806C205.192 284.814 205.023 284.818 204.856 284.827C204.54 288.763 204.222 292.699 203.91 296.635C203.846 297.454 203.806 298.278 203.751 299.097C203.553 302.033 202.952 302.638 199.951 302.609C192.61 302.539 185.262 302.185 177.932 302.407C173.166 302.551 168.424 303.498 163.674 304.095C161.292 304.4 158.92 304.799 156.531 304.997C155.936 305.046 155.291 304.474 154.668 304.186C155.076 303.708 155.402 302.934 155.904 302.798C158.267 302.14 160.67 301.23 163.071 301.193C171.916 301.057 180.492 299.262 189.1 297.557C190.718 297.236 191.352 296.643 191.303 294.848C190.93 281.022 189.651 267.32 186.163 253.896C185.647 251.909 184.935 249.97 184.248 248.032C184.059 247.499 183.635 247.049 183.319 246.561C183.082 246.541 182.845 246.522 182.609 246.502C181.957 248.515 180.994 250.484 180.704 252.548C178.972 264.833 177.397 277.144 175.768 289.442C175.515 291.348 175.312 293.259 174.969 295.149C174.851 295.799 174.377 296.384 174.066 296.997C173.843 296.985 173.621 296.968 173.399 296.952C173.199 296.161 172.85 295.375 172.824 294.58C172.585 287.178 172.492 279.771 172.178 272.372C171.772 262.836 170.993 253.326 168.713 244.023C168.081 241.444 167.022 238.963 166.073 236.47C165.887 235.98 165.308 235.64 164.911 235.231C164.503 235.649 163.876 235.999 163.723 236.496C162.832 239.371 161.685 242.231 161.3 245.185C159.476 259.19 157.864 273.224 156.195 287.248C155.911 289.631 155.772 292.032 155.447 294.412C155.359 295.05 154.836 295.634 154.513 296.244C154.171 295.597 153.572 294.963 153.525 294.296C152.98 286.494 152.676 278.671 151.986 270.886C151.326 263.438 150.394 255.998 147.404 249.02C147.134 248.389 146.704 247.826 146.349 247.231C146.133 247.245 145.918 247.258 145.703 247.272C145.285 248.805 144.665 250.315 144.487 251.876C143.731 258.483 142.883 265.093 142.489 271.726C141.977 280.347 141.844 288.993 141.597 297.631C141.556 299.097 141.035 299.764 139.509 299.706C137.59 299.628 135.666 299.715 133.745 299.682C132.231 299.653 130.739 299.496 129.647 300.958C129.385 301.308 128.662 301.419 128.14 301.448C125.061 301.613 121.979 301.786 118.897 301.786C118.249 301.786 117.602 301.057 116.955 300.666C117.48 300.184 117.946 299.385 118.541 299.274C121.225 298.768 123.94 298.232 126.656 298.158C128.68 298.105 129.342 297.376 129.336 295.511C129.308 285.839 129.521 276.164 129.259 266.505C128.919 253.955 128.218 241.417 127.656 228.876C127.561 226.752 127.288 224.633 127.278 222.51C127.269 220.752 126.646 220.124 124.831 220.176C118.659 220.353 112.483 220.374 106.308 220.455C106.034 220.459 105.71 220.573 105.495 220.465C105.021 220.225 104.602 219.876 104.16 219.572C104.567 219.297 104.953 218.829 105.384 218.783C106.744 218.637 108.122 218.664 109.492 218.597C114.905 218.331 120.316 217.868 125.731 217.825C135.226 217.75 144.723 218.023 154.219 217.981C170.617 217.908 187.014 217.706 203.411 217.55C203.799 217.546 204.186 217.443 204.918 217.336C204.473 216.73 204.231 216.286 203.885 215.947C192.33 204.6 181.187 192.869 170.829 180.41C169.807 179.179 169.342 179.024 168.306 180.472C164.93 185.191 160.138 188.346 155.42 191.531C152.638 193.408 149.682 195.025 146.888 196.886C145.135 198.053 143.309 198.377 141.246 198.311C136.996 198.175 132.74 198.169 128.489 198.25C127.832 198.262 127.175 198.997 126.544 199.436C125.966 199.838 125.443 200.635 124.863 200.667C119.661 200.955 114.453 201.123 109.245 201.293C108.711 201.311 108.121 201.224 107.641 201.002C106.471 200.461 106.206 199.529 107.397 198.879C108.633 198.205 110.045 197.661 111.432 197.494C115.242 197.035 119.075 196.752 122.907 196.512C124.273 196.426 124.82 196.027 124.817 194.556C124.769 173.833 124.778 153.11 124.768 132.387C124.767 129.604 124.734 129.751 121.926 129.377C116.63 128.672 111.337 127.894 106.09 126.899C104.328 126.565 102.635 125.607 101.057 124.682C100.42 124.309 99.7017 123.113 99.8751 122.559C100.099 121.843 101.136 120.992 101.899 120.91C103.926 120.691 106.017 120.66 108.04 120.903C112.464 121.436 116.86 122.189 121.269 122.838C121.654 122.895 122.055 122.845 122.844 122.845C122.434 121.8 122.111 120.956 121.774 120.117C118.504 111.976 115.054 103.9 112.062 95.6572C111.087 92.9732 111.249 89.8606 110.998 86.9349C110.763 84.18 110.669 81.4136 110.025 78.5929C109.839 78.9742 109.535 79.341 109.485 79.7392C108.514 87.5463 105.237 94.6176 102.399 101.817C99.3835 109.467 96.1492 117.031 93.1389 124.684C92.6353 125.963 92.6551 127.501 92.6547 128.919C92.6382 182.786 92.6407 236.653 92.6637 290.521C92.6666 296.956 92.3455 296.248 98.4953 296.128C101.991 296.058 105.492 296.095 108.985 296.223C109.643 296.248 110.277 296.94 110.922 297.318C110.398 297.796 109.933 298.591 109.341 298.698C105.241 299.451 101.128 300.2 96.985 300.629C95.777 300.756 94.2712 300.102 93.2328 299.352C91.1082 297.812 89.1672 297.438 86.8692 298.574C86.3965 298.809 85.844 298.924 85.3149 298.998C83.0947 299.299 80.8762 299.682 78.6446 299.809C77.042 299.9 75.4169 299.517 73.8057 299.546C58.653 299.842 43.5007 300.192 28.348 300.501C27.0497 300.526 25.7379 300.431 24.4524 300.25C24.0172 300.188 23.6438 299.686 23.2423 299.385C23.6314 298.986 23.9756 298.298 24.417 298.228C26.7829 297.858 29.1711 297.627 31.5551 297.38C32.4947 297.285 33.4434 297.277 34.5662 297.22C34.4933 296.581 34.5596 296.083 34.3739 295.708C32.9431 292.826 31.5967 289.891 29.9633 287.124C28.0816 283.937 26.2382 283.913 24.3462 287.062C22.8367 289.578 21.7584 292.349 20.3395 294.926C19.9035 295.717 18.9758 296.24 18.2733 296.882C17.8217 296.013 17.0109 295.157 16.978 294.267C16.8079 289.677 16.8487 285.078 16.7861 280.483C16.7721 279.462 17.1814 278.206 15.3392 278.169C13.6918 278.136 12.6641 278.511 12.7209 280.396C12.8296 284.02 12.6563 287.676 13.08 291.262C13.2871 293.016 14.5746 294.642 15.3644 296.33C15.5739 296.779 15.751 297.244 16.108 298.092C14.7533 297.985 13.8248 297.911 12.8963 297.837C9.13544 297.537 5.37166 297.265 1.61652 296.902C1.05696 296.849 0.537742 296.38 0 296.104C0.595798 295.816 1.19983 295.268 1.78657 295.284C4.4584 295.367 7.12529 295.61 9.79382 295.791C10.5226 295.84 11.2522 295.877 12.303 295.939C12.0201 294.762 11.659 293.876 11.617 292.979C11.4062 288.474 11.2407 283.966 11.1394 279.454C11.0921 277.346 12.2314 276.263 14.3622 276.456C16.3859 276.637 16.9319 275.789 16.9327 273.801C16.936 267.629 17.0966 261.453 17.3568 255.287C17.4186 253.83 17.0134 253.278 15.6641 253.128C14.2971 252.976 12.4134 252.794 12.7329 251.051C13.0771 249.173 15.0428 249.432 16.5189 249.785C17.3869 249.993 18.1461 250.632 18.9737 251.039C19.621 251.357 20.2938 251.857 20.9612 251.866C37.0791 252.097 53.1978 252.27 69.3164 252.465C70.5566 252.479 71.2245 252.073 71.2257 250.688C71.2269 248.963 70.0695 249.135 68.9664 249.107C55.0469 248.756 41.127 248.417 27.2083 248.032C25.2932 247.979 23.3856 247.68 21.4714 247.534C20.1036 247.43 19.5749 246.737 19.6194 245.378C19.6869 243.322 19.6177 241.262 19.6453 239.203C19.6593 238.144 19.4596 237.395 18.2252 237.072C17.7076 236.937 17.3675 236.122 16.9471 235.616C17.5441 235.246 18.1301 234.854 18.7473 234.52C18.893 234.441 19.1718 234.509 19.346 234.597C24.1815 237.013 29.4272 236.224 34.4987 236.34C45.9489 236.603 57.4066 236.543 68.8615 236.556C69.456 236.556 70.051 236.009 70.646 235.717C70.0288 235.343 69.4177 234.655 68.7931 234.642C60.9053 234.483 53.0137 234.481 45.1255 234.315C38.6124 234.178 32.1002 233.928 25.593 233.621C23.244 233.511 22.5975 232.605 23.4556 230.4C26.7459 221.943 31.9726 215.57 41.6079 214.126C43.7086 213.811 45.7855 213.328 47.8615 212.867C48.4878 212.728 49.0729 212.404 49.6765 212.165C49.6468 211.985 49.6172 211.804 49.5871 211.624Z" fill="#0E3027"/>
</svg>
