<svg width="50" height="50" viewBox="0 0 50 50" fill="none" xmlns="http://www.w3.org/2000/svg">
<g clip-path="url(#clip0_174_1054)">
<path d="M0 46.9597V43.4916C0.954518 43.0335 1.99043 42.9588 2.98195 42.7447C9.95462 41.226 16.9396 39.757 23.9148 38.2383C24.6739 38.0752 25.459 38.0802 26.216 38.2532C33.7517 39.8997 41.2885 41.5364 48.826 43.1629C49.2231 43.2476 49.635 43.2824 50 43.5737V46.9622L0 46.9597Z" fill="white"/>
<path d="M25.5796 2.85718L33.2774 4.26635V37.8325L25.6314 36.1918C25.3823 35.1959 25.3404 4.3261 25.5796 2.85718Z" fill="white"/>
<path d="M16.947 4.23647L24.4993 2.85718C24.7459 3.76343 24.8446 33.9187 24.5955 36.1445L16.9791 37.7901C16.7373 36.8192 16.7028 5.57344 16.947 4.23647Z" fill="white"/>
<path d="M2.14584 9.43499L10.1964 8.22998C10.48 9.18354 10.5688 37.3296 10.3073 39.2118L2.21983 40.9496C1.97319 39.9537 1.91399 11.0981 2.14584 9.43499Z" fill="white"/>
<path d="M47.8123 40.9719L39.9689 39.2939C39.6976 38.298 39.6508 11.2773 39.9147 8.30212C42.5834 8.55109 45.2077 9.04903 47.8073 9.46232C48.0071 10.5752 48.0194 39.5752 47.8123 40.9719Z" fill="white"/>
<path d="M35.3912 8.90467L39.007 8.26233V39.0176C37.7868 38.848 36.5793 38.5983 35.3912 38.2707V8.90467Z" fill="white"/>
<path d="M14.7692 38.2507C13.5359 38.4772 12.4704 38.8856 11.2471 38.8831V8.33443C12.4803 8.29958 13.6001 8.6332 14.7692 8.88217V38.2507Z" fill="white"/>
</g>
<defs>
<clipPath id="clip0_174_1054">
<rect width="50" height="50" fill="white"/>
</clipPath>
</defs>
</svg>
