<svg width="20" height="16" viewBox="0 0 20 16" fill="none" xmlns="http://www.w3.org/2000/svg">
<path fill-rule="evenodd" clip-rule="evenodd" d="M13.9256 0.662889C15.0751 -0.231168 16.75 0.588 16.75 2.04426V4.24951H18C18.9665 4.24951 19.75 5.03301 19.75 5.99951V7.99951C19.75 8.96601 18.9665 9.74951 18 9.74951H16.75V11.955C16.75 13.4112 15.0751 14.2304 13.9256 13.3363L10.5997 10.7495H8.75V12.9995C8.75 14.5183 7.51878 15.7495 6 15.7495C4.48122 15.7495 3.25 14.5183 3.25 12.9995V10.6745C1.53832 10.3271 0.25 8.81375 0.25 6.99953C0.25 4.92846 1.92893 3.24953 4 3.24953H10.5999L13.9256 0.662889ZM16.75 8.24951H18C18.1381 8.24951 18.25 8.13758 18.25 7.99951V5.99951C18.25 5.86144 18.1381 5.74951 18 5.74951H16.75V8.24951ZM15.25 11.955C15.25 12.163 15.0107 12.28 14.8465 12.1523L11.1144 9.24953H8.00513L8 9.24951L7.99487 9.24953H4.00513L4 9.24951L3.99556 9.24953C2.75496 9.24713 1.75 8.24069 1.75 6.99953C1.75 5.75689 2.75736 4.74953 4 4.74953H11.1146L14.8465 1.84692C15.0107 1.7192 15.25 1.83622 15.25 2.04426L15.25 11.955ZM7.25 10.7495H4.75V12.9995C4.75 13.6899 5.30964 14.2495 6 14.2495C6.69036 14.2495 7.25 13.6899 7.25 12.9995V10.7495Z" fill="#4F4F4E"/>
</svg>
