<svg width="18" height="18" viewBox="0 0 18 18" fill="none" xmlns="http://www.w3.org/2000/svg">
<path fill-rule="evenodd" clip-rule="evenodd" d="M6.9375 13.3125H4.81061C3.6413 13.3125 3.05571 11.8988 3.88254 11.0719L4.63254 10.3219C4.6677 10.2868 4.68745 10.2391 4.68745 10.1893V5.96498L4.6918 5.93023C4.76718 5.32717 5.07353 4.46267 5.74845 3.74083C6.43935 3.0019 7.49444 2.4375 8.99995 2.4375C10.5055 2.4375 11.5606 3.0019 12.2515 3.74083C12.9264 4.46267 13.2327 5.32717 13.3081 5.93023L13.3125 5.96498V10.1893C13.3125 10.2391 13.3322 10.2868 13.3674 10.3219L14.1174 11.0719C14.9442 11.8987 14.3586 13.3125 13.1893 13.3125H11.0625V14.25C11.0625 14.9749 10.4749 15.5625 9.75 15.5625H8.25C7.52513 15.5625 6.9375 14.9749 6.9375 14.25L6.9375 13.3125ZM5.81245 10.1893V6.03743C5.86962 5.63893 6.08958 5.02321 6.57021 4.50917C7.04806 3.9981 7.80547 3.5625 8.99995 3.5625C10.1944 3.5625 10.9518 3.9981 11.4297 4.50917C11.9103 5.02321 12.1303 5.63893 12.1875 6.03743V10.1893C12.1875 10.5374 12.3257 10.8713 12.5719 11.1174L13.3219 11.8674C13.44 11.9855 13.3563 12.1875 13.1893 12.1875H4.81061C4.64357 12.1875 4.55991 11.9855 4.67803 11.8674L5.42803 11.1174C5.67417 10.8713 5.81245 10.5374 5.81245 10.1893ZM9.9375 13.3125V14.25C9.9375 14.3536 9.85355 14.4375 9.75 14.4375H8.25C8.14645 14.4375 8.0625 14.3536 8.0625 14.25V13.3125H9.9375Z" fill="white"/>
</svg>
