<svg width="15" height="14" viewBox="0 0 15 14" fill="none" xmlns="http://www.w3.org/2000/svg">
<path d="M10 6C10.8284 6 11.5 5.32843 11.5 4.5C11.5 3.67157 10.8284 3 10 3C9.17157 3 8.5 3.67157 8.5 4.5C8.5 5.32843 9.17157 6 10 6Z" fill="#4F4F4E"/>
<path fill-rule="evenodd" clip-rule="evenodd" d="M7.93201 0.1875C7.18609 0.1875 6.47072 0.483816 5.94327 1.01126L1.44327 5.51126C0.344918 6.60961 0.344921 8.39039 1.44327 9.48874L5.01129 13.0568C6.10964 14.1551 7.89042 14.1551 8.98876 13.0568L13.4888 8.55676C14.0162 8.02931 14.3125 7.31394 14.3125 6.56802V3C14.3125 1.4467 13.0533 0.1875 11.5 0.1875H7.93201ZM6.73876 1.80676C7.05523 1.49029 7.48446 1.3125 7.93201 1.3125H11.5C12.432 1.3125 13.1875 2.06802 13.1875 3V6.56802C13.1875 7.01557 13.0097 7.44479 12.6933 7.76126L8.19327 12.2613C7.53426 12.9203 6.4658 12.9203 5.80679 12.2613L2.23877 8.69324C1.57975 8.03423 1.57975 6.96577 2.23876 6.30676L6.73876 1.80676Z" fill="#4F4F4E"/>
</svg>
