<svg width="14" height="15" viewBox="0 0 14 15" fill="none" xmlns="http://www.w3.org/2000/svg">
<path fill-rule="evenodd" clip-rule="evenodd" d="M10.4785 4.5C10.4785 6.57107 8.79952 8.25 6.72845 8.25C4.65739 8.25 2.97845 6.57107 2.97845 4.5C2.97845 2.42893 4.65739 0.75 6.72845 0.75C8.79952 0.75 10.4785 2.42893 10.4785 4.5ZM9.35345 4.5C9.35345 5.94975 8.1782 7.125 6.72845 7.125C5.27871 7.125 4.10345 5.94975 4.10345 4.5C4.10345 3.05025 5.27871 1.875 6.72845 1.875C8.1782 1.875 9.35345 3.05025 9.35345 4.5Z" fill="#4F4F4E"/>
<path fill-rule="evenodd" clip-rule="evenodd" d="M6.72846 9.1875C3.78184 9.1875 1.88153 10.2668 0.750177 11.5398C0.444492 11.8838 0.274942 12.2777 0.252545 12.6862C0.230322 13.0916 0.355135 13.471 0.569089 13.7869C0.991812 14.4111 1.77214 14.8125 2.63449 14.8125H10.8224C11.6848 14.8125 12.4651 14.4111 12.8878 13.7869C13.1018 13.471 13.2266 13.0916 13.2044 12.6862C13.182 12.2777 13.0124 11.8838 12.7067 11.5398C11.5754 10.2668 9.67507 9.1875 6.72846 9.1875ZM1.59109 12.2872C2.49678 11.268 4.08444 10.3125 6.72846 10.3125C9.37247 10.3125 10.9601 11.268 11.8658 12.2872C12.0219 12.4628 12.0741 12.6208 12.0811 12.7478C12.0882 12.878 12.05 13.0178 11.9563 13.1561C11.7638 13.4403 11.3504 13.6875 10.8224 13.6875H2.63449C2.10648 13.6875 1.69308 13.4403 1.50057 13.1561C1.4069 13.0178 1.36872 12.878 1.37586 12.7478C1.38282 12.6208 1.43498 12.4628 1.59109 12.2872Z" fill="#4F4F4E"/>
</svg>
