<svg width="14" height="15" viewBox="0 0 14 15" fill="none" xmlns="http://www.w3.org/2000/svg">
<path fill-rule="evenodd" clip-rule="evenodd" d="M8.79332 10.0888C7.89268 10.8152 6.74712 11.25 5.5 11.25C2.60051 11.25 0.25 8.8995 0.25 6C0.25 3.10051 2.60051 0.75 5.5 0.75C8.3995 0.75 10.75 3.10051 10.75 6C10.75 7.24712 10.3152 8.39268 9.58882 9.29332L13.3977 13.1023C13.6174 13.3219 13.6174 13.6781 13.3977 13.8977C13.1781 14.1174 12.8219 14.1174 12.6023 13.8977L8.79332 10.0888ZM9.625 6C9.625 8.27817 7.77817 10.125 5.5 10.125C3.22183 10.125 1.375 8.27817 1.375 6C1.375 3.72183 3.22183 1.875 5.5 1.875C7.77817 1.875 9.625 3.72183 9.625 6Z" fill="#4F4F4E"/>
</svg>
