<svg width="14" height="14" viewBox="0 0 14 14" fill="none" xmlns="http://www.w3.org/2000/svg">
<path fill-rule="evenodd" clip-rule="evenodd" d="M8.98874 0.943392C7.89039 -0.154957 6.10961 -0.15496 5.01126 0.94339L1.26126 4.69339C0.733816 5.22084 0.4375 5.93621 0.4375 6.68213V11.0001C0.4375 12.5534 1.6967 13.8126 3.25 13.8126H10.75C12.3033 13.8126 13.5625 12.5534 13.5625 11.0001V6.68213C13.5625 5.93621 13.2662 5.22084 12.7387 4.69339L8.98874 0.943392ZM5.80676 1.73889C6.46577 1.07988 7.53423 1.07988 8.19324 1.73889L11.9432 5.48889C12.2597 5.80536 12.4375 6.23458 12.4375 6.68213V11.0001C12.4375 11.9321 11.682 12.6876 10.75 12.6876H7.5625V8.75012C7.5625 8.43946 7.31066 8.18762 7 8.18762C6.68934 8.18762 6.4375 8.43946 6.4375 8.75012V12.6876H3.25C2.31802 12.6876 1.5625 11.9321 1.5625 11.0001V6.68213C1.5625 6.23458 1.74029 5.80536 2.05676 5.48889L5.80676 1.73889Z" fill="#4F4F4E"/>
</svg>
