<svg width="18" height="18" viewBox="0 0 18 18" fill="none" xmlns="http://www.w3.org/2000/svg">
<path d="M12 7.5C12.8284 7.5 13.5 6.82843 13.5 6C13.5 5.17157 12.8284 4.5 12 4.5C11.1716 4.5 10.5 5.17157 10.5 6C10.5 6.82843 11.1716 7.5 12 7.5Z" fill="#E1E1E1"/>
<path fill-rule="evenodd" clip-rule="evenodd" d="M9.93201 1.6875C9.18609 1.6875 8.47072 1.98382 7.94327 2.51126L3.44327 7.01126C2.34492 8.10961 2.34492 9.89039 3.44327 10.9887L7.01129 14.5568C8.10964 15.6551 9.89042 15.6551 10.9888 14.5568L15.4888 10.0568C16.0162 9.52931 16.3125 8.81394 16.3125 8.06802V4.5C16.3125 2.9467 15.0533 1.6875 13.5 1.6875H9.93201ZM8.73876 3.30676C9.05523 2.99029 9.48446 2.8125 9.93201 2.8125H13.5C14.432 2.8125 15.1875 3.56802 15.1875 4.5V8.06802C15.1875 8.51557 15.0097 8.94479 14.6933 9.26126L10.1933 13.7613C9.53426 14.4203 8.4658 14.4203 7.80679 13.7613L4.23877 10.1932C3.57975 9.53423 3.57975 8.46577 4.23876 7.80676L8.73876 3.30676Z" fill="#E1E1E1"/>
</svg>
