<svg width="10" height="10" viewBox="0 0 10 10" fill="none" xmlns="http://www.w3.org/2000/svg">
<path d="M9.60828 1.27525C9.85236 1.03118 9.85236 0.635449 9.60828 0.391371C9.36421 0.147294 8.96848 0.147294 8.7244 0.391371L4.99968 4.1161L1.27495 0.391371C1.03087 0.147294 0.635145 0.147294 0.391067 0.391371C0.14699 0.635449 0.14699 1.03118 0.391067 1.27525L4.11579 4.99998L0.391066 8.72471C0.146988 8.96878 0.146988 9.36451 0.391066 9.60859C0.635144 9.85267 1.03087 9.85267 1.27495 9.60859L4.99968 5.88386L8.7244 9.60859C8.96848 9.85267 9.36421 9.85267 9.60828 9.60859C9.85236 9.36451 9.85236 8.96878 9.60828 8.72471L5.88356 4.99998L9.60828 1.27525Z" fill="#878786"/>
</svg>
