<svg width="17" height="18" viewBox="0 0 17 18" fill="none" xmlns="http://www.w3.org/2000/svg">
<path d="M2.125 1.5C2.125 1.15482 1.84518 0.875 1.5 0.875C1.15482 0.875 0.875 1.15482 0.875 1.5V16.5C0.875 16.8452 1.15482 17.125 1.5 17.125C1.84518 17.125 2.125 16.8452 2.125 16.5L2.125 1.5Z" fill="white"/>
<path d="M9.44194 3.55806C9.68602 3.80214 9.68602 4.19786 9.44194 4.44194L5.50888 8.375L15.6667 8.375C16.0118 8.375 16.2917 8.65482 16.2917 9C16.2917 9.34518 16.0118 9.625 15.6667 9.625L5.50888 9.625L9.44194 13.5581C9.68602 13.8021 9.68602 14.1979 9.44194 14.4419C9.19786 14.686 8.80214 14.686 8.55806 14.4419L3.85269 9.73657C3.44589 9.32977 3.44589 8.67023 3.85269 8.26343L8.55806 3.55806C8.80214 3.31398 9.19786 3.31398 9.44194 3.55806Z" fill="white"/>
</svg>
