<svg width="16" height="16" viewBox="0 0 16 16" fill="none" xmlns="http://www.w3.org/2000/svg">
<path fill-rule="evenodd" clip-rule="evenodd" d="M9.99258 10.8765C8.99187 11.6835 7.71902 12.1667 6.33333 12.1667C3.11167 12.1667 0.5 9.55499 0.5 6.33333C0.5 3.11167 3.11167 0.5 6.33333 0.5C9.55499 0.5 12.1667 3.11167 12.1667 6.33333C12.1667 7.71902 11.6835 8.99187 10.8765 9.99258L15.1086 14.2247C15.3527 14.4688 15.3527 14.8645 15.1086 15.1086C14.8645 15.3527 14.4688 15.3527 14.2247 15.1086L9.99258 10.8765ZM10.9167 6.33333C10.9167 8.86464 8.86464 10.9167 6.33333 10.9167C3.80203 10.9167 1.75 8.86464 1.75 6.33333C1.75 3.80203 3.80203 1.75 6.33333 1.75C8.86464 1.75 10.9167 3.80203 10.9167 6.33333Z" fill="#AFAFAE"/>
</svg>
