<svg width="18" height="18" viewBox="0 0 18 18" fill="none" xmlns="http://www.w3.org/2000/svg">
<path fill-rule="evenodd" clip-rule="evenodd" d="M10.9887 3.44339C9.89039 2.34504 8.10961 2.34504 7.01126 3.44339L3.26126 7.19339C2.73382 7.72084 2.4375 8.43621 2.4375 9.18213V13.5001C2.4375 15.0534 3.6967 16.3126 5.25 16.3126H12.75C14.3033 16.3126 15.5625 15.0534 15.5625 13.5001V9.18213C15.5625 8.43621 15.2662 7.72084 14.7387 7.19339L10.9887 3.44339ZM7.80676 4.23889C8.46577 3.57988 9.53423 3.57988 10.1932 4.23889L13.9432 7.98889C14.2597 8.30536 14.4375 8.73458 14.4375 9.18213V13.5001C14.4375 14.4321 13.682 15.1876 12.75 15.1876H9.5625V11.2501C9.5625 10.9395 9.31066 10.6876 9 10.6876C8.68934 10.6876 8.4375 10.9395 8.4375 11.2501V15.1876H5.25C4.31802 15.1876 3.5625 14.4321 3.5625 13.5001V9.18213C3.5625 8.73458 3.74029 8.30536 4.05676 7.98889L7.80676 4.23889Z" fill="#E1E1E1"/>
</svg>
