<svg width="30" height="30" viewBox="0 0 30 30" fill="none" xmlns="http://www.w3.org/2000/svg">
<g clip-path="url(#clip0_417_6655)">
<path d="M0 28.1756V26.0948C0.572711 25.8199 1.19426 25.7751 1.78917 25.6466C5.97277 24.7354 10.1638 23.854 14.3489 22.9428C14.8044 22.8449 15.2754 22.8479 15.7296 22.9518C20.251 23.9396 24.7731 24.9217 29.2956 25.8976C29.5338 25.9484 29.781 25.9693 30 26.144V28.1771L0 28.1756Z" fill="white"/>
<path d="M15.3478 1.71436L19.9665 2.55986V22.6995L15.3788 21.7151C15.2294 21.1176 15.2042 2.59571 15.3478 1.71436Z" fill="white"/>
<path d="M10.1682 2.54193L14.6996 1.71436C14.8476 2.25811 14.9068 20.3512 14.7573 21.6867L10.1874 22.6741C10.0424 22.0915 10.0217 3.34411 10.1682 2.54193Z" fill="white"/>
<path d="M1.28751 5.661L6.11781 4.93799C6.288 5.51012 6.34127 22.3977 6.18441 23.5271L1.3319 24.5698C1.18391 23.9722 1.1484 6.65887 1.28751 5.661Z" fill="white"/>
<path d="M28.6874 24.5833L23.9814 23.5765C23.8186 22.979 23.7905 6.76656 23.9488 4.98145C25.55 5.13083 27.1246 5.42959 28.6844 5.67757C28.8043 6.3453 28.8117 23.7453 28.6874 24.5833Z" fill="white"/>
<path d="M21.2347 5.34293L23.4042 4.95752V23.4107C22.6721 23.3089 21.9476 23.1591 21.2347 22.9625V5.34293Z" fill="white"/>
<path d="M8.8615 22.9503C8.12156 23.0862 7.48226 23.3312 6.74824 23.3297V5.00054C7.48818 4.97962 8.16004 5.1798 8.8615 5.32918V22.9503Z" fill="white"/>
</g>
<defs>
<clipPath id="clip0_417_6655">
<rect width="30" height="30" fill="white"/>
</clipPath>
</defs>
</svg>
