<svg width="17" height="17" viewBox="0 0 17 17" fill="none" xmlns="http://www.w3.org/2000/svg">
<path fill-rule="evenodd" clip-rule="evenodd" d="M13.9032 2.11955C13.4964 1.71275 12.8369 1.71275 12.4301 2.11955L2.4301 12.1196C2.23475 12.3149 2.125 12.5799 2.125 12.8561V14.8741H4.14298C4.41925 14.8741 4.6842 14.7644 4.87955 14.569L14.8795 4.569C15.2863 4.1622 15.2863 3.50266 14.8795 3.09586L13.9032 2.11955ZM11.5462 1.23567C12.4412 0.340714 13.8922 0.340717 14.7871 1.23567L15.7634 2.21198C16.6584 3.10693 16.6584 4.55793 15.7634 5.45288L5.76343 15.4529C5.33366 15.8827 4.75076 16.1241 4.14298 16.1241H1.91667C1.34137 16.1241 0.875 15.6577 0.875 15.0824V12.8561C0.875 12.2483 1.11644 11.6654 1.54621 11.2357L11.5462 1.23567Z" fill="white"/>
</svg>
