<svg width="18" height="18" viewBox="0 0 18 18" fill="none" xmlns="http://www.w3.org/2000/svg">
<path fill-rule="evenodd" clip-rule="evenodd" d="M10.7933 11.5888C9.89268 12.3152 8.74712 12.75 7.5 12.75C4.60051 12.75 2.25 10.3995 2.25 7.5C2.25 4.60051 4.60051 2.25 7.5 2.25C10.3995 2.25 12.75 4.60051 12.75 7.5C12.75 8.74712 12.3152 9.89268 11.5888 10.7933L15.3977 14.6023C15.6174 14.8219 15.6174 15.1781 15.3977 15.3977C15.1781 15.6174 14.8219 15.6174 14.6023 15.3977L10.7933 11.5888ZM11.625 7.5C11.625 9.77817 9.77817 11.625 7.5 11.625C5.22183 11.625 3.375 9.77817 3.375 7.5C3.375 5.22183 5.22183 3.375 7.5 3.375C9.77817 3.375 11.625 5.22183 11.625 7.5Z" fill="#E1E1E1"/>
</svg>
