<svg width="20" height="20" viewBox="0 0 20 20" fill="none" xmlns="http://www.w3.org/2000/svg">
<path d="M16.8749 2.5C16.8749 2.15482 17.1547 1.875 17.4999 1.875C17.8451 1.875 18.1249 2.15482 18.1249 2.5L18.1249 17.5C18.1249 17.8452 17.8451 18.125 17.4999 18.125C17.1547 18.125 16.8749 17.8452 16.8749 17.5L16.8749 2.5Z" fill="white"/>
<path d="M9.55798 4.55806C9.3139 4.80214 9.3139 5.19786 9.55798 5.44194L13.491 9.375H3.33325C2.98807 9.375 2.70825 9.65482 2.70825 10C2.70825 10.3452 2.98807 10.625 3.33325 10.625H13.491L9.55798 14.5581C9.3139 14.8021 9.3139 15.1979 9.55798 15.4419C9.80205 15.686 10.1978 15.686 10.4419 15.4419L15.1472 10.7366C15.554 10.3298 15.554 9.67023 15.1472 9.26343L10.4419 4.55806C10.1978 4.31398 9.80205 4.31398 9.55798 4.55806Z" fill="white"/>
</svg>
