<svg width="17" height="17" viewBox="0 0 17 17" fill="none" xmlns="http://www.w3.org/2000/svg">
<path d="M13.9419 6.77521C13.6979 7.01929 13.3021 7.01929 13.0581 6.77521L9.125 2.84215L9.125 12.1666C9.125 12.5118 8.84518 12.7916 8.5 12.7916C8.15482 12.7916 7.875 12.5118 7.875 12.1666L7.875 2.84215L3.94194 6.77521C3.69786 7.01929 3.30214 7.01929 3.05806 6.77521C2.81398 6.53113 2.81398 6.13541 3.05806 5.89133L7.76343 1.18596C8.17023 0.77916 8.82977 0.77916 9.23657 1.18596L13.9419 5.89133C14.186 6.13541 14.186 6.53113 13.9419 6.77521Z" fill="#878786"/>
<path d="M1.625 11.3333C1.625 10.9881 1.34518 10.7083 1 10.7083C0.654822 10.7083 0.375 10.9881 0.375 11.3333V12.9999C0.375 14.7258 1.77411 16.1249 3.5 16.1249H13.5C15.2259 16.1249 16.625 14.7258 16.625 12.9999V11.3333C16.625 10.9881 16.3452 10.7083 16 10.7083C15.6548 10.7083 15.375 10.9881 15.375 11.3333V12.9999C15.375 14.0355 14.5355 14.8749 13.5 14.8749H3.5C2.46447 14.8749 1.625 14.0355 1.625 12.9999V11.3333Z" fill="#878786"/>
</svg>
